<?xml version="1.0" encoding="utf-8" standalone="no"?>
<!DOCTYPE svg PUBLIC "-//W3C//DTD SVG 1.1//EN"
  "http://www.w3.org/Graphics/SVG/1.1/DTD/svg11.dtd">
<svg xmlns:xlink="http://www.w3.org/1999/xlink" width="255.11811pt" height="255.11811pt" viewBox="0 0 255.11811 255.11811" xmlns="http://www.w3.org/2000/svg" version="1.1">
 <metadata>
  <rdf:RDF xmlns:dc="http://purl.org/dc/elements/1.1/" xmlns:cc="http://creativecommons.org/ns#" xmlns:rdf="http://www.w3.org/1999/02/22-rdf-syntax-ns#">
   <cc:Work>
    <dc:type rdf:resource="http://purl.org/dc/dcmitype/StillImage"/>
    <dc:date>2022-04-11T13:38:44.451824</dc:date>
    <dc:format>image/svg+xml</dc:format>
    <dc:creator>
     <cc:Agent>
      <dc:title>Matplotlib v3.5.1, https://matplotlib.org/</dc:title>
     </cc:Agent>
    </dc:creator>
   </cc:Work>
  </rdf:RDF>
 </metadata>
 <defs>
  <style type="text/css">*{stroke-linejoin: round; stroke-linecap: butt}</style>
 </defs>
 <g id="figure_1">
  <g id="patch_1">
   <path d="M 0 255.11811 
L 255.11811 255.11811 
L 255.11811 0 
L 0 0 
z
" style="fill: #ffffff"/>
  </g>
  <g id="axes_1">
   <g id="patch_2">
    <path d="M 49.72 213.89811 
L 241.046896 213.89811 
L 241.046896 22.72 
L 49.72 22.72 
z
" style="fill: #ffffff"/>
   </g>
   <g id="matplotlib.axis_1">
    <g id="xtick_1">
     <g id="line2d_1">
      <defs>
       <path id="maa0b2a9298" d="M 0 0 
L 0 6 
" style="stroke: #444444; stroke-width: 1.25"/>
      </defs>
      <g>
       <use xlink:href="#maa0b2a9298" x="71.394731" y="213.89811" style="fill: #444444; stroke: #444444; stroke-width: 1.25"/>
      </g>
     </g>
     <g id="text_1">
      <!-- 0.050 -->
      <g style="fill: #444444" transform="translate(60.134888 229.840141)scale(0.09 -0.09)">
       <defs>
        <path id="ArialMT-30" d="M 266 2259 
Q 266 3072 433 3567 
Q 600 4063 929 4331 
Q 1259 4600 1759 4600 
Q 2128 4600 2406 4451 
Q 2684 4303 2865 4023 
Q 3047 3744 3150 3342 
Q 3253 2941 3253 2259 
Q 3253 1453 3087 958 
Q 2922 463 2592 192 
Q 2263 -78 1759 -78 
Q 1097 -78 719 397 
Q 266 969 266 2259 
z
M 844 2259 
Q 844 1131 1108 757 
Q 1372 384 1759 384 
Q 2147 384 2411 759 
Q 2675 1134 2675 2259 
Q 2675 3391 2411 3762 
Q 2147 4134 1753 4134 
Q 1366 4134 1134 3806 
Q 844 3388 844 2259 
z
" transform="scale(0.015625)"/>
        <path id="ArialMT-2e" d="M 581 0 
L 581 641 
L 1222 641 
L 1222 0 
L 581 0 
z
" transform="scale(0.015625)"/>
        <path id="ArialMT-35" d="M 266 1200 
L 856 1250 
Q 922 819 1161 601 
Q 1400 384 1738 384 
Q 2144 384 2425 690 
Q 2706 997 2706 1503 
Q 2706 1984 2436 2262 
Q 2166 2541 1728 2541 
Q 1456 2541 1237 2417 
Q 1019 2294 894 2097 
L 366 2166 
L 809 4519 
L 3088 4519 
L 3088 3981 
L 1259 3981 
L 1013 2750 
Q 1425 3038 1878 3038 
Q 2478 3038 2890 2622 
Q 3303 2206 3303 1553 
Q 3303 931 2941 478 
Q 2500 -78 1738 -78 
Q 1113 -78 717 272 
Q 322 622 266 1200 
z
" transform="scale(0.015625)"/>
       </defs>
       <use xlink:href="#ArialMT-30"/>
       <use xlink:href="#ArialMT-2e" x="55.615234"/>
       <use xlink:href="#ArialMT-30" x="83.398438"/>
       <use xlink:href="#ArialMT-35" x="139.013672"/>
       <use xlink:href="#ArialMT-30" x="194.628906"/>
      </g>
     </g>
    </g>
    <g id="xtick_2">
     <g id="line2d_2">
      <g>
       <use xlink:href="#maa0b2a9298" x="104.002093" y="213.89811" style="fill: #444444; stroke: #444444; stroke-width: 1.25"/>
      </g>
     </g>
     <g id="text_2">
      <!-- 0.075 -->
      <g style="fill: #444444" transform="translate(92.742249 229.840141)scale(0.09 -0.09)">
       <defs>
        <path id="ArialMT-37" d="M 303 3981 
L 303 4522 
L 3269 4522 
L 3269 4084 
Q 2831 3619 2401 2847 
Q 1972 2075 1738 1259 
Q 1569 684 1522 0 
L 944 0 
Q 953 541 1156 1306 
Q 1359 2072 1739 2783 
Q 2119 3494 2547 3981 
L 303 3981 
z
" transform="scale(0.015625)"/>
       </defs>
       <use xlink:href="#ArialMT-30"/>
       <use xlink:href="#ArialMT-2e" x="55.615234"/>
       <use xlink:href="#ArialMT-30" x="83.398438"/>
       <use xlink:href="#ArialMT-37" x="139.013672"/>
       <use xlink:href="#ArialMT-35" x="194.628906"/>
      </g>
     </g>
    </g>
    <g id="xtick_3">
     <g id="line2d_3">
      <g>
       <use xlink:href="#maa0b2a9298" x="136.609455" y="213.89811" style="fill: #444444; stroke: #444444; stroke-width: 1.25"/>
      </g>
     </g>
     <g id="text_3">
      <!-- 0.100 -->
      <g style="fill: #444444" transform="translate(125.349611 229.840141)scale(0.09 -0.09)">
       <defs>
        <path id="ArialMT-31" d="M 2384 0 
L 1822 0 
L 1822 3584 
Q 1619 3391 1289 3197 
Q 959 3003 697 2906 
L 697 3450 
Q 1169 3672 1522 3987 
Q 1875 4303 2022 4600 
L 2384 4600 
L 2384 0 
z
" transform="scale(0.015625)"/>
       </defs>
       <use xlink:href="#ArialMT-30"/>
       <use xlink:href="#ArialMT-2e" x="55.615234"/>
       <use xlink:href="#ArialMT-31" x="83.398438"/>
       <use xlink:href="#ArialMT-30" x="139.013672"/>
       <use xlink:href="#ArialMT-30" x="194.628906"/>
      </g>
     </g>
    </g>
    <g id="xtick_4">
     <g id="line2d_4">
      <g>
       <use xlink:href="#maa0b2a9298" x="169.216816" y="213.89811" style="fill: #444444; stroke: #444444; stroke-width: 1.25"/>
      </g>
     </g>
     <g id="text_4">
      <!-- 0.125 -->
      <g style="fill: #444444" transform="translate(157.956973 229.840141)scale(0.09 -0.09)">
       <defs>
        <path id="ArialMT-32" d="M 3222 541 
L 3222 0 
L 194 0 
Q 188 203 259 391 
Q 375 700 629 1000 
Q 884 1300 1366 1694 
Q 2113 2306 2375 2664 
Q 2638 3022 2638 3341 
Q 2638 3675 2398 3904 
Q 2159 4134 1775 4134 
Q 1369 4134 1125 3890 
Q 881 3647 878 3216 
L 300 3275 
Q 359 3922 746 4261 
Q 1134 4600 1788 4600 
Q 2447 4600 2831 4234 
Q 3216 3869 3216 3328 
Q 3216 3053 3103 2787 
Q 2991 2522 2730 2228 
Q 2469 1934 1863 1422 
Q 1356 997 1212 845 
Q 1069 694 975 541 
L 3222 541 
z
" transform="scale(0.015625)"/>
       </defs>
       <use xlink:href="#ArialMT-30"/>
       <use xlink:href="#ArialMT-2e" x="55.615234"/>
       <use xlink:href="#ArialMT-31" x="83.398438"/>
       <use xlink:href="#ArialMT-32" x="139.013672"/>
       <use xlink:href="#ArialMT-35" x="194.628906"/>
      </g>
     </g>
    </g>
    <g id="xtick_5">
     <g id="line2d_5">
      <g>
       <use xlink:href="#maa0b2a9298" x="201.824178" y="213.89811" style="fill: #444444; stroke: #444444; stroke-width: 1.25"/>
      </g>
     </g>
     <g id="text_5">
      <!-- 0.150 -->
      <g style="fill: #444444" transform="translate(190.564334 229.840141)scale(0.09 -0.09)">
       <use xlink:href="#ArialMT-30"/>
       <use xlink:href="#ArialMT-2e" x="55.615234"/>
       <use xlink:href="#ArialMT-31" x="83.398438"/>
       <use xlink:href="#ArialMT-35" x="139.013672"/>
       <use xlink:href="#ArialMT-30" x="194.628906"/>
      </g>
     </g>
    </g>
    <g id="xtick_6">
     <g id="line2d_6">
      <g>
       <use xlink:href="#maa0b2a9298" x="234.43154" y="213.89811" style="fill: #444444; stroke: #444444; stroke-width: 1.25"/>
      </g>
     </g>
     <g id="text_6">
      <!-- 0.175 -->
      <g style="fill: #444444" transform="translate(223.171696 229.840141)scale(0.09 -0.09)">
       <use xlink:href="#ArialMT-30"/>
       <use xlink:href="#ArialMT-2e" x="55.615234"/>
       <use xlink:href="#ArialMT-31" x="83.398438"/>
       <use xlink:href="#ArialMT-37" x="139.013672"/>
       <use xlink:href="#ArialMT-35" x="194.628906"/>
      </g>
     </g>
    </g>
    <g id="text_7">
     <!-- ASM Sites / kb (H1-hESC) -->
     <g style="fill: #444444" transform="translate(92.621651 242.18061)scale(0.09 -0.09)">
      <defs>
       <path id="ArialMT-41" d="M -9 0 
L 1750 4581 
L 2403 4581 
L 4278 0 
L 3588 0 
L 3053 1388 
L 1138 1388 
L 634 0 
L -9 0 
z
M 1313 1881 
L 2866 1881 
L 2388 3150 
Q 2169 3728 2063 4100 
Q 1975 3659 1816 3225 
L 1313 1881 
z
" transform="scale(0.015625)"/>
       <path id="ArialMT-53" d="M 288 1472 
L 859 1522 
Q 900 1178 1048 958 
Q 1197 738 1509 602 
Q 1822 466 2213 466 
Q 2559 466 2825 569 
Q 3091 672 3220 851 
Q 3350 1031 3350 1244 
Q 3350 1459 3225 1620 
Q 3100 1781 2813 1891 
Q 2628 1963 1997 2114 
Q 1366 2266 1113 2400 
Q 784 2572 623 2826 
Q 463 3081 463 3397 
Q 463 3744 659 4045 
Q 856 4347 1234 4503 
Q 1613 4659 2075 4659 
Q 2584 4659 2973 4495 
Q 3363 4331 3572 4012 
Q 3781 3694 3797 3291 
L 3216 3247 
Q 3169 3681 2898 3903 
Q 2628 4125 2100 4125 
Q 1550 4125 1298 3923 
Q 1047 3722 1047 3438 
Q 1047 3191 1225 3031 
Q 1400 2872 2139 2705 
Q 2878 2538 3153 2413 
Q 3553 2228 3743 1945 
Q 3934 1663 3934 1294 
Q 3934 928 3725 604 
Q 3516 281 3123 101 
Q 2731 -78 2241 -78 
Q 1619 -78 1198 103 
Q 778 284 539 648 
Q 300 1013 288 1472 
z
" transform="scale(0.015625)"/>
       <path id="ArialMT-4d" d="M 475 0 
L 475 4581 
L 1388 4581 
L 2472 1338 
Q 2622 884 2691 659 
Q 2769 909 2934 1394 
L 4031 4581 
L 4847 4581 
L 4847 0 
L 4263 0 
L 4263 3834 
L 2931 0 
L 2384 0 
L 1059 3900 
L 1059 0 
L 475 0 
z
" transform="scale(0.015625)"/>
       <path id="ArialMT-20" transform="scale(0.015625)"/>
       <path id="ArialMT-69" d="M 425 3934 
L 425 4581 
L 988 4581 
L 988 3934 
L 425 3934 
z
M 425 0 
L 425 3319 
L 988 3319 
L 988 0 
L 425 0 
z
" transform="scale(0.015625)"/>
       <path id="ArialMT-74" d="M 1650 503 
L 1731 6 
Q 1494 -44 1306 -44 
Q 1000 -44 831 53 
Q 663 150 594 308 
Q 525 466 525 972 
L 525 2881 
L 113 2881 
L 113 3319 
L 525 3319 
L 525 4141 
L 1084 4478 
L 1084 3319 
L 1650 3319 
L 1650 2881 
L 1084 2881 
L 1084 941 
Q 1084 700 1114 631 
Q 1144 563 1211 522 
Q 1278 481 1403 481 
Q 1497 481 1650 503 
z
" transform="scale(0.015625)"/>
       <path id="ArialMT-65" d="M 2694 1069 
L 3275 997 
Q 3138 488 2766 206 
Q 2394 -75 1816 -75 
Q 1088 -75 661 373 
Q 234 822 234 1631 
Q 234 2469 665 2931 
Q 1097 3394 1784 3394 
Q 2450 3394 2872 2941 
Q 3294 2488 3294 1666 
Q 3294 1616 3291 1516 
L 816 1516 
Q 847 969 1125 678 
Q 1403 388 1819 388 
Q 2128 388 2347 550 
Q 2566 713 2694 1069 
z
M 847 1978 
L 2700 1978 
Q 2663 2397 2488 2606 
Q 2219 2931 1791 2931 
Q 1403 2931 1139 2672 
Q 875 2413 847 1978 
z
" transform="scale(0.015625)"/>
       <path id="ArialMT-73" d="M 197 991 
L 753 1078 
Q 800 744 1014 566 
Q 1228 388 1613 388 
Q 2000 388 2187 545 
Q 2375 703 2375 916 
Q 2375 1106 2209 1216 
Q 2094 1291 1634 1406 
Q 1016 1563 777 1677 
Q 538 1791 414 1992 
Q 291 2194 291 2438 
Q 291 2659 392 2848 
Q 494 3038 669 3163 
Q 800 3259 1026 3326 
Q 1253 3394 1513 3394 
Q 1903 3394 2198 3281 
Q 2494 3169 2634 2976 
Q 2775 2784 2828 2463 
L 2278 2388 
Q 2241 2644 2061 2787 
Q 1881 2931 1553 2931 
Q 1166 2931 1000 2803 
Q 834 2675 834 2503 
Q 834 2394 903 2306 
Q 972 2216 1119 2156 
Q 1203 2125 1616 2013 
Q 2213 1853 2448 1751 
Q 2684 1650 2818 1456 
Q 2953 1263 2953 975 
Q 2953 694 2789 445 
Q 2625 197 2315 61 
Q 2006 -75 1616 -75 
Q 969 -75 630 194 
Q 291 463 197 991 
z
" transform="scale(0.015625)"/>
       <path id="ArialMT-2f" d="M 0 -78 
L 1328 4659 
L 1778 4659 
L 453 -78 
L 0 -78 
z
" transform="scale(0.015625)"/>
       <path id="ArialMT-6b" d="M 425 0 
L 425 4581 
L 988 4581 
L 988 1969 
L 2319 3319 
L 3047 3319 
L 1778 2088 
L 3175 0 
L 2481 0 
L 1384 1697 
L 988 1316 
L 988 0 
L 425 0 
z
" transform="scale(0.015625)"/>
       <path id="ArialMT-62" d="M 941 0 
L 419 0 
L 419 4581 
L 981 4581 
L 981 2947 
Q 1338 3394 1891 3394 
Q 2197 3394 2470 3270 
Q 2744 3147 2920 2923 
Q 3097 2700 3197 2384 
Q 3297 2069 3297 1709 
Q 3297 856 2875 390 
Q 2453 -75 1863 -75 
Q 1275 -75 941 416 
L 941 0 
z
M 934 1684 
Q 934 1088 1097 822 
Q 1363 388 1816 388 
Q 2184 388 2453 708 
Q 2722 1028 2722 1663 
Q 2722 2313 2464 2622 
Q 2206 2931 1841 2931 
Q 1472 2931 1203 2611 
Q 934 2291 934 1684 
z
" transform="scale(0.015625)"/>
       <path id="ArialMT-28" d="M 1497 -1347 
Q 1031 -759 709 28 
Q 388 816 388 1659 
Q 388 2403 628 3084 
Q 909 3875 1497 4659 
L 1900 4659 
Q 1522 4009 1400 3731 
Q 1209 3300 1100 2831 
Q 966 2247 966 1656 
Q 966 153 1900 -1347 
L 1497 -1347 
z
" transform="scale(0.015625)"/>
       <path id="ArialMT-48" d="M 513 0 
L 513 4581 
L 1119 4581 
L 1119 2700 
L 3500 2700 
L 3500 4581 
L 4106 4581 
L 4106 0 
L 3500 0 
L 3500 2159 
L 1119 2159 
L 1119 0 
L 513 0 
z
" transform="scale(0.015625)"/>
       <path id="ArialMT-2d" d="M 203 1375 
L 203 1941 
L 1931 1941 
L 1931 1375 
L 203 1375 
z
" transform="scale(0.015625)"/>
       <path id="ArialMT-68" d="M 422 0 
L 422 4581 
L 984 4581 
L 984 2938 
Q 1378 3394 1978 3394 
Q 2347 3394 2619 3248 
Q 2891 3103 3008 2847 
Q 3125 2591 3125 2103 
L 3125 0 
L 2563 0 
L 2563 2103 
Q 2563 2525 2380 2717 
Q 2197 2909 1863 2909 
Q 1613 2909 1392 2779 
Q 1172 2650 1078 2428 
Q 984 2206 984 1816 
L 984 0 
L 422 0 
z
" transform="scale(0.015625)"/>
       <path id="ArialMT-45" d="M 506 0 
L 506 4581 
L 3819 4581 
L 3819 4041 
L 1113 4041 
L 1113 2638 
L 3647 2638 
L 3647 2100 
L 1113 2100 
L 1113 541 
L 3925 541 
L 3925 0 
L 506 0 
z
" transform="scale(0.015625)"/>
       <path id="ArialMT-43" d="M 3763 1606 
L 4369 1453 
Q 4178 706 3683 314 
Q 3188 -78 2472 -78 
Q 1731 -78 1267 223 
Q 803 525 561 1097 
Q 319 1669 319 2325 
Q 319 3041 592 3573 
Q 866 4106 1370 4382 
Q 1875 4659 2481 4659 
Q 3169 4659 3637 4309 
Q 4106 3959 4291 3325 
L 3694 3184 
Q 3534 3684 3231 3912 
Q 2928 4141 2469 4141 
Q 1941 4141 1586 3887 
Q 1231 3634 1087 3207 
Q 944 2781 944 2328 
Q 944 1744 1114 1308 
Q 1284 872 1643 656 
Q 2003 441 2422 441 
Q 2931 441 3284 734 
Q 3638 1028 3763 1606 
z
" transform="scale(0.015625)"/>
       <path id="ArialMT-29" d="M 791 -1347 
L 388 -1347 
Q 1322 153 1322 1656 
Q 1322 2244 1188 2822 
Q 1081 3291 891 3722 
Q 769 4003 388 4659 
L 791 4659 
Q 1378 3875 1659 3084 
Q 1900 2403 1900 1659 
Q 1900 816 1576 28 
Q 1253 -759 791 -1347 
z
" transform="scale(0.015625)"/>
      </defs>
      <use xlink:href="#ArialMT-41"/>
      <use xlink:href="#ArialMT-53" x="66.699219"/>
      <use xlink:href="#ArialMT-4d" x="133.398438"/>
      <use xlink:href="#ArialMT-20" x="216.699219"/>
      <use xlink:href="#ArialMT-53" x="244.482422"/>
      <use xlink:href="#ArialMT-69" x="311.181641"/>
      <use xlink:href="#ArialMT-74" x="333.398438"/>
      <use xlink:href="#ArialMT-65" x="361.181641"/>
      <use xlink:href="#ArialMT-73" x="416.796875"/>
      <use xlink:href="#ArialMT-20" x="466.796875"/>
      <use xlink:href="#ArialMT-2f" x="494.580078"/>
      <use xlink:href="#ArialMT-20" x="522.363281"/>
      <use xlink:href="#ArialMT-6b" x="550.146484"/>
      <use xlink:href="#ArialMT-62" x="600.146484"/>
      <use xlink:href="#ArialMT-20" x="655.761719"/>
      <use xlink:href="#ArialMT-28" x="683.544922"/>
      <use xlink:href="#ArialMT-48" x="716.845703"/>
      <use xlink:href="#ArialMT-31" x="789.0625"/>
      <use xlink:href="#ArialMT-2d" x="844.677734"/>
      <use xlink:href="#ArialMT-68" x="877.978516"/>
      <use xlink:href="#ArialMT-45" x="933.59375"/>
      <use xlink:href="#ArialMT-53" x="1000.292969"/>
      <use xlink:href="#ArialMT-43" x="1066.992188"/>
      <use xlink:href="#ArialMT-29" x="1139.208984"/>
     </g>
    </g>
   </g>
   <g id="matplotlib.axis_2">
    <g id="ytick_1">
     <g id="line2d_7">
      <defs>
       <path id="mb5b133e7bc" d="M 0 0 
L -6 0 
" style="stroke: #444444; stroke-width: 1.25"/>
      </defs>
      <g>
       <use xlink:href="#mb5b133e7bc" x="49.72" y="213.89811" style="fill: #444444; stroke: #444444; stroke-width: 1.25"/>
      </g>
     </g>
     <g id="text_8">
      <!-- 0.00 -->
      <g style="fill: #444444" transform="translate(22.705156 217.119126)scale(0.09 -0.09)">
       <use xlink:href="#ArialMT-30"/>
       <use xlink:href="#ArialMT-2e" x="55.615234"/>
       <use xlink:href="#ArialMT-30" x="83.398438"/>
       <use xlink:href="#ArialMT-30" x="139.013672"/>
      </g>
     </g>
    </g>
    <g id="ytick_2">
     <g id="line2d_8">
      <g>
       <use xlink:href="#mb5b133e7bc" x="49.72" y="178.056695" style="fill: #444444; stroke: #444444; stroke-width: 1.25"/>
      </g>
     </g>
     <g id="text_9">
      <!-- 0.01 -->
      <g style="fill: #444444" transform="translate(22.705156 181.27771)scale(0.09 -0.09)">
       <use xlink:href="#ArialMT-30"/>
       <use xlink:href="#ArialMT-2e" x="55.615234"/>
       <use xlink:href="#ArialMT-30" x="83.398438"/>
       <use xlink:href="#ArialMT-31" x="139.013672"/>
      </g>
     </g>
    </g>
    <g id="ytick_3">
     <g id="line2d_9">
      <g>
       <use xlink:href="#mb5b133e7bc" x="49.72" y="142.215279" style="fill: #444444; stroke: #444444; stroke-width: 1.25"/>
      </g>
     </g>
     <g id="text_10">
      <!-- 0.02 -->
      <g style="fill: #444444" transform="translate(22.705156 145.436295)scale(0.09 -0.09)">
       <use xlink:href="#ArialMT-30"/>
       <use xlink:href="#ArialMT-2e" x="55.615234"/>
       <use xlink:href="#ArialMT-30" x="83.398438"/>
       <use xlink:href="#ArialMT-32" x="139.013672"/>
      </g>
     </g>
    </g>
    <g id="ytick_4">
     <g id="line2d_10">
      <g>
       <use xlink:href="#mb5b133e7bc" x="49.72" y="106.373864" style="fill: #444444; stroke: #444444; stroke-width: 1.25"/>
      </g>
     </g>
     <g id="text_11">
      <!-- 0.03 -->
      <g style="fill: #444444" transform="translate(22.705156 109.594879)scale(0.09 -0.09)">
       <defs>
        <path id="ArialMT-33" d="M 269 1209 
L 831 1284 
Q 928 806 1161 595 
Q 1394 384 1728 384 
Q 2125 384 2398 659 
Q 2672 934 2672 1341 
Q 2672 1728 2419 1979 
Q 2166 2231 1775 2231 
Q 1616 2231 1378 2169 
L 1441 2663 
Q 1497 2656 1531 2656 
Q 1891 2656 2178 2843 
Q 2466 3031 2466 3422 
Q 2466 3731 2256 3934 
Q 2047 4138 1716 4138 
Q 1388 4138 1169 3931 
Q 950 3725 888 3313 
L 325 3413 
Q 428 3978 793 4289 
Q 1159 4600 1703 4600 
Q 2078 4600 2393 4439 
Q 2709 4278 2876 4000 
Q 3044 3722 3044 3409 
Q 3044 3113 2884 2869 
Q 2725 2625 2413 2481 
Q 2819 2388 3044 2092 
Q 3269 1797 3269 1353 
Q 3269 753 2831 336 
Q 2394 -81 1725 -81 
Q 1122 -81 723 278 
Q 325 638 269 1209 
z
" transform="scale(0.015625)"/>
       </defs>
       <use xlink:href="#ArialMT-30"/>
       <use xlink:href="#ArialMT-2e" x="55.615234"/>
       <use xlink:href="#ArialMT-30" x="83.398438"/>
       <use xlink:href="#ArialMT-33" x="139.013672"/>
      </g>
     </g>
    </g>
    <g id="ytick_5">
     <g id="line2d_11">
      <g>
       <use xlink:href="#mb5b133e7bc" x="49.72" y="70.532448" style="fill: #444444; stroke: #444444; stroke-width: 1.25"/>
      </g>
     </g>
     <g id="text_12">
      <!-- 0.04 -->
      <g style="fill: #444444" transform="translate(22.705156 73.753464)scale(0.09 -0.09)">
       <defs>
        <path id="ArialMT-34" d="M 2069 0 
L 2069 1097 
L 81 1097 
L 81 1613 
L 2172 4581 
L 2631 4581 
L 2631 1613 
L 3250 1613 
L 3250 1097 
L 2631 1097 
L 2631 0 
L 2069 0 
z
M 2069 1613 
L 2069 3678 
L 634 1613 
L 2069 1613 
z
" transform="scale(0.015625)"/>
       </defs>
       <use xlink:href="#ArialMT-30"/>
       <use xlink:href="#ArialMT-2e" x="55.615234"/>
       <use xlink:href="#ArialMT-30" x="83.398438"/>
       <use xlink:href="#ArialMT-34" x="139.013672"/>
      </g>
     </g>
    </g>
    <g id="ytick_6">
     <g id="line2d_12">
      <g>
       <use xlink:href="#mb5b133e7bc" x="49.72" y="34.691033" style="fill: #444444; stroke: #444444; stroke-width: 1.25"/>
      </g>
     </g>
     <g id="text_13">
      <!-- 0.05 -->
      <g style="fill: #444444" transform="translate(22.705156 37.912048)scale(0.09 -0.09)">
       <use xlink:href="#ArialMT-30"/>
       <use xlink:href="#ArialMT-2e" x="55.615234"/>
       <use xlink:href="#ArialMT-30" x="83.398438"/>
       <use xlink:href="#ArialMT-35" x="139.013672"/>
      </g>
     </g>
    </g>
    <g id="text_14">
     <!-- Probability -->
     <g style="fill: #444444" transform="translate(16.810938 139.31843)rotate(-90)scale(0.09 -0.09)">
      <defs>
       <path id="ArialMT-50" d="M 494 0 
L 494 4581 
L 2222 4581 
Q 2678 4581 2919 4538 
Q 3256 4481 3484 4323 
Q 3713 4166 3852 3881 
Q 3991 3597 3991 3256 
Q 3991 2672 3619 2267 
Q 3247 1863 2275 1863 
L 1100 1863 
L 1100 0 
L 494 0 
z
M 1100 2403 
L 2284 2403 
Q 2872 2403 3119 2622 
Q 3366 2841 3366 3238 
Q 3366 3525 3220 3729 
Q 3075 3934 2838 4000 
Q 2684 4041 2272 4041 
L 1100 4041 
L 1100 2403 
z
" transform="scale(0.015625)"/>
       <path id="ArialMT-72" d="M 416 0 
L 416 3319 
L 922 3319 
L 922 2816 
Q 1116 3169 1280 3281 
Q 1444 3394 1641 3394 
Q 1925 3394 2219 3213 
L 2025 2691 
Q 1819 2813 1613 2813 
Q 1428 2813 1281 2702 
Q 1134 2591 1072 2394 
Q 978 2094 978 1738 
L 978 0 
L 416 0 
z
" transform="scale(0.015625)"/>
       <path id="ArialMT-6f" d="M 213 1659 
Q 213 2581 725 3025 
Q 1153 3394 1769 3394 
Q 2453 3394 2887 2945 
Q 3322 2497 3322 1706 
Q 3322 1066 3130 698 
Q 2938 331 2570 128 
Q 2203 -75 1769 -75 
Q 1072 -75 642 372 
Q 213 819 213 1659 
z
M 791 1659 
Q 791 1022 1069 705 
Q 1347 388 1769 388 
Q 2188 388 2466 706 
Q 2744 1025 2744 1678 
Q 2744 2294 2464 2611 
Q 2184 2928 1769 2928 
Q 1347 2928 1069 2612 
Q 791 2297 791 1659 
z
" transform="scale(0.015625)"/>
       <path id="ArialMT-61" d="M 2588 409 
Q 2275 144 1986 34 
Q 1697 -75 1366 -75 
Q 819 -75 525 192 
Q 231 459 231 875 
Q 231 1119 342 1320 
Q 453 1522 633 1644 
Q 813 1766 1038 1828 
Q 1203 1872 1538 1913 
Q 2219 1994 2541 2106 
Q 2544 2222 2544 2253 
Q 2544 2597 2384 2738 
Q 2169 2928 1744 2928 
Q 1347 2928 1158 2789 
Q 969 2650 878 2297 
L 328 2372 
Q 403 2725 575 2942 
Q 747 3159 1072 3276 
Q 1397 3394 1825 3394 
Q 2250 3394 2515 3294 
Q 2781 3194 2906 3042 
Q 3031 2891 3081 2659 
Q 3109 2516 3109 2141 
L 3109 1391 
Q 3109 606 3145 398 
Q 3181 191 3288 0 
L 2700 0 
Q 2613 175 2588 409 
z
M 2541 1666 
Q 2234 1541 1622 1453 
Q 1275 1403 1131 1340 
Q 988 1278 909 1158 
Q 831 1038 831 891 
Q 831 666 1001 516 
Q 1172 366 1500 366 
Q 1825 366 2078 508 
Q 2331 650 2450 897 
Q 2541 1088 2541 1459 
L 2541 1666 
z
" transform="scale(0.015625)"/>
       <path id="ArialMT-6c" d="M 409 0 
L 409 4581 
L 972 4581 
L 972 0 
L 409 0 
z
" transform="scale(0.015625)"/>
       <path id="ArialMT-79" d="M 397 -1278 
L 334 -750 
Q 519 -800 656 -800 
Q 844 -800 956 -737 
Q 1069 -675 1141 -563 
Q 1194 -478 1313 -144 
Q 1328 -97 1363 -6 
L 103 3319 
L 709 3319 
L 1400 1397 
Q 1534 1031 1641 628 
Q 1738 1016 1872 1384 
L 2581 3319 
L 3144 3319 
L 1881 -56 
Q 1678 -603 1566 -809 
Q 1416 -1088 1222 -1217 
Q 1028 -1347 759 -1347 
Q 597 -1347 397 -1278 
z
" transform="scale(0.015625)"/>
      </defs>
      <use xlink:href="#ArialMT-50"/>
      <use xlink:href="#ArialMT-72" x="66.699219"/>
      <use xlink:href="#ArialMT-6f" x="100"/>
      <use xlink:href="#ArialMT-62" x="155.615234"/>
      <use xlink:href="#ArialMT-61" x="211.230469"/>
      <use xlink:href="#ArialMT-62" x="266.845703"/>
      <use xlink:href="#ArialMT-69" x="322.460938"/>
      <use xlink:href="#ArialMT-6c" x="344.677734"/>
      <use xlink:href="#ArialMT-69" x="366.894531"/>
      <use xlink:href="#ArialMT-74" x="389.111328"/>
      <use xlink:href="#ArialMT-79" x="416.894531"/>
     </g>
    </g>
   </g>
   <g id="patch_3">
    <path d="M 58.416677 213.89811 
L 61.761553 213.89811 
L 61.761553 210.672383 
L 58.416677 210.672383 
z
" clip-path="url(#p25f647030b)" style="fill: #4c72b0; fill-opacity: 0.75; stroke: #ffffff; stroke-width: 0.345658; stroke-linejoin: miter"/>
   </g>
   <g id="patch_4">
    <path d="M 61.761553 213.89811 
L 65.106429 213.89811 
L 65.106429 206.729827 
L 61.761553 206.729827 
z
" clip-path="url(#p25f647030b)" style="fill: #4c72b0; fill-opacity: 0.75; stroke: #ffffff; stroke-width: 0.345658; stroke-linejoin: miter"/>
   </g>
   <g id="patch_5">
    <path d="M 65.106429 213.89811 
L 68.451304 213.89811 
L 68.451304 206.729827 
L 65.106429 206.729827 
z
" clip-path="url(#p25f647030b)" style="fill: #4c72b0; fill-opacity: 0.75; stroke: #ffffff; stroke-width: 0.345658; stroke-linejoin: miter"/>
   </g>
   <g id="patch_6">
    <path d="M 68.451304 213.89811 
L 71.79618 213.89811 
L 71.79618 212.822868 
L 68.451304 212.822868 
z
" clip-path="url(#p25f647030b)" style="fill: #4c72b0; fill-opacity: 0.75; stroke: #ffffff; stroke-width: 0.345658; stroke-linejoin: miter"/>
   </g>
   <g id="patch_7">
    <path d="M 71.79618 213.89811 
L 75.141056 213.89811 
L 75.141056 206.012999 
L 71.79618 206.012999 
z
" clip-path="url(#p25f647030b)" style="fill: #4c72b0; fill-opacity: 0.75; stroke: #ffffff; stroke-width: 0.345658; stroke-linejoin: miter"/>
   </g>
   <g id="patch_8">
    <path d="M 75.141056 213.89811 
L 78.485932 213.89811 
L 78.485932 199.919958 
L 75.141056 199.919958 
z
" clip-path="url(#p25f647030b)" style="fill: #4c72b0; fill-opacity: 0.75; stroke: #ffffff; stroke-width: 0.345658; stroke-linejoin: miter"/>
   </g>
   <g id="patch_9">
    <path d="M 78.485932 213.89811 
L 81.830808 213.89811 
L 81.830808 197.411059 
L 78.485932 197.411059 
z
" clip-path="url(#p25f647030b)" style="fill: #4c72b0; fill-opacity: 0.75; stroke: #ffffff; stroke-width: 0.345658; stroke-linejoin: miter"/>
   </g>
   <g id="patch_10">
    <path d="M 81.830808 213.89811 
L 85.175683 213.89811 
L 85.175683 198.127887 
L 81.830808 198.127887 
z
" clip-path="url(#p25f647030b)" style="fill: #4c72b0; fill-opacity: 0.75; stroke: #ffffff; stroke-width: 0.345658; stroke-linejoin: miter"/>
   </g>
   <g id="patch_11">
    <path d="M 85.175683 213.89811 
L 88.520559 213.89811 
L 88.520559 191.318018 
L 85.175683 191.318018 
z
" clip-path="url(#p25f647030b)" style="fill: #4c72b0; fill-opacity: 0.75; stroke: #ffffff; stroke-width: 0.345658; stroke-linejoin: miter"/>
   </g>
   <g id="patch_12">
    <path d="M 88.520559 213.89811 
L 91.865435 213.89811 
L 91.865435 179.848766 
L 88.520559 179.848766 
z
" clip-path="url(#p25f647030b)" style="fill: #4c72b0; fill-opacity: 0.75; stroke: #ffffff; stroke-width: 0.345658; stroke-linejoin: miter"/>
   </g>
   <g id="patch_13">
    <path d="M 91.865435 213.89811 
L 95.210311 213.89811 
L 95.210311 173.038897 
L 91.865435 173.038897 
z
" clip-path="url(#p25f647030b)" style="fill: #4c72b0; fill-opacity: 0.75; stroke: #ffffff; stroke-width: 0.345658; stroke-linejoin: miter"/>
   </g>
   <g id="patch_14">
    <path d="M 95.210311 213.89811 
L 98.555187 213.89811 
L 98.555187 167.662684 
L 95.210311 167.662684 
z
" clip-path="url(#p25f647030b)" style="fill: #4c72b0; fill-opacity: 0.75; stroke: #ffffff; stroke-width: 0.345658; stroke-linejoin: miter"/>
   </g>
   <g id="patch_15">
    <path d="M 98.555187 213.89811 
L 101.900062 213.89811 
L 101.900062 155.476603 
L 98.555187 155.476603 
z
" clip-path="url(#p25f647030b)" style="fill: #4c72b0; fill-opacity: 0.75; stroke: #ffffff; stroke-width: 0.345658; stroke-linejoin: miter"/>
   </g>
   <g id="patch_16">
    <path d="M 101.900062 213.89811 
L 105.244938 213.89811 
L 105.244938 141.140037 
L 101.900062 141.140037 
z
" clip-path="url(#p25f647030b)" style="fill: #4c72b0; fill-opacity: 0.75; stroke: #ffffff; stroke-width: 0.345658; stroke-linejoin: miter"/>
   </g>
   <g id="patch_17">
    <path d="M 105.244938 213.89811 
L 108.589814 213.89811 
L 108.589814 143.648936 
L 105.244938 143.648936 
z
" clip-path="url(#p25f647030b)" style="fill: #4c72b0; fill-opacity: 0.75; stroke: #ffffff; stroke-width: 0.345658; stroke-linejoin: miter"/>
   </g>
   <g id="patch_18">
    <path d="M 108.589814 213.89811 
L 111.93469 213.89811 
L 111.93469 126.803471 
L 108.589814 126.803471 
z
" clip-path="url(#p25f647030b)" style="fill: #4c72b0; fill-opacity: 0.75; stroke: #ffffff; stroke-width: 0.345658; stroke-linejoin: miter"/>
   </g>
   <g id="patch_19">
    <path d="M 111.93469 213.89811 
L 115.279566 213.89811 
L 115.279566 111.033248 
L 111.93469 111.033248 
z
" clip-path="url(#p25f647030b)" style="fill: #4c72b0; fill-opacity: 0.75; stroke: #ffffff; stroke-width: 0.345658; stroke-linejoin: miter"/>
   </g>
   <g id="patch_20">
    <path d="M 115.279566 213.89811 
L 118.624441 213.89811 
L 118.624441 110.316419 
L 115.279566 110.316419 
z
" clip-path="url(#p25f647030b)" style="fill: #4c72b0; fill-opacity: 0.75; stroke: #ffffff; stroke-width: 0.345658; stroke-linejoin: miter"/>
   </g>
   <g id="patch_21">
    <path d="M 118.624441 213.89811 
L 121.969317 213.89811 
L 121.969317 96.696682 
L 118.624441 96.696682 
z
" clip-path="url(#p25f647030b)" style="fill: #4c72b0; fill-opacity: 0.75; stroke: #ffffff; stroke-width: 0.345658; stroke-linejoin: miter"/>
   </g>
   <g id="patch_22">
    <path d="M 121.969317 213.89811 
L 125.314193 213.89811 
L 125.314193 72.682933 
L 121.969317 72.682933 
z
" clip-path="url(#p25f647030b)" style="fill: #4c72b0; fill-opacity: 0.75; stroke: #ffffff; stroke-width: 0.345658; stroke-linejoin: miter"/>
   </g>
   <g id="patch_23">
    <path d="M 125.314193 213.89811 
L 128.659069 213.89811 
L 128.659069 76.267075 
L 125.314193 76.267075 
z
" clip-path="url(#p25f647030b)" style="fill: #4c72b0; fill-opacity: 0.75; stroke: #ffffff; stroke-width: 0.345658; stroke-linejoin: miter"/>
   </g>
   <g id="patch_24">
    <path d="M 128.659069 213.89811 
L 132.003945 213.89811 
L 132.003945 55.837468 
L 128.659069 55.837468 
z
" clip-path="url(#p25f647030b)" style="fill: #4c72b0; fill-opacity: 0.75; stroke: #ffffff; stroke-width: 0.345658; stroke-linejoin: miter"/>
   </g>
   <g id="patch_25">
    <path d="M 132.003945 213.89811 
L 135.34882 213.89811 
L 135.34882 31.82372 
L 132.003945 31.82372 
z
" clip-path="url(#p25f647030b)" style="fill: #4c72b0; fill-opacity: 0.75; stroke: #ffffff; stroke-width: 0.345658; stroke-linejoin: miter"/>
   </g>
   <g id="patch_26">
    <path d="M 135.34882 213.89811 
L 138.693696 213.89811 
L 138.693696 33.257376 
L 135.34882 33.257376 
z
" clip-path="url(#p25f647030b)" style="fill: #4c72b0; fill-opacity: 0.75; stroke: #ffffff; stroke-width: 0.345658; stroke-linejoin: miter"/>
   </g>
   <g id="patch_27">
    <path d="M 138.693696 213.89811 
L 142.038572 213.89811 
L 142.038572 44.726629 
L 138.693696 44.726629 
z
" clip-path="url(#p25f647030b)" style="fill: #4c72b0; fill-opacity: 0.75; stroke: #ffffff; stroke-width: 0.345658; stroke-linejoin: miter"/>
   </g>
   <g id="patch_28">
    <path d="M 142.038572 213.89811 
L 145.383448 213.89811 
L 145.383448 51.536498 
L 142.038572 51.536498 
z
" clip-path="url(#p25f647030b)" style="fill: #4c72b0; fill-opacity: 0.75; stroke: #ffffff; stroke-width: 0.345658; stroke-linejoin: miter"/>
   </g>
   <g id="patch_29">
    <path d="M 145.383448 213.89811 
L 148.728324 213.89811 
L 148.728324 41.500902 
L 145.383448 41.500902 
z
" clip-path="url(#p25f647030b)" style="fill: #4c72b0; fill-opacity: 0.75; stroke: #ffffff; stroke-width: 0.345658; stroke-linejoin: miter"/>
   </g>
   <g id="patch_30">
    <path d="M 148.728324 213.89811 
L 152.073199 213.89811 
L 152.073199 40.784073 
L 148.728324 40.784073 
z
" clip-path="url(#p25f647030b)" style="fill: #4c72b0; fill-opacity: 0.75; stroke: #ffffff; stroke-width: 0.345658; stroke-linejoin: miter"/>
   </g>
   <g id="patch_31">
    <path d="M 152.073199 213.89811 
L 155.418075 213.89811 
L 155.418075 52.970155 
L 152.073199 52.970155 
z
" clip-path="url(#p25f647030b)" style="fill: #4c72b0; fill-opacity: 0.75; stroke: #ffffff; stroke-width: 0.345658; stroke-linejoin: miter"/>
   </g>
   <g id="patch_32">
    <path d="M 155.418075 213.89811 
L 158.762951 213.89811 
L 158.762951 58.346367 
L 155.418075 58.346367 
z
" clip-path="url(#p25f647030b)" style="fill: #4c72b0; fill-opacity: 0.75; stroke: #ffffff; stroke-width: 0.345658; stroke-linejoin: miter"/>
   </g>
   <g id="patch_33">
    <path d="M 158.762951 213.89811 
L 162.107827 213.89811 
L 162.107827 64.439408 
L 158.762951 64.439408 
z
" clip-path="url(#p25f647030b)" style="fill: #4c72b0; fill-opacity: 0.75; stroke: #ffffff; stroke-width: 0.345658; stroke-linejoin: miter"/>
   </g>
   <g id="patch_34">
    <path d="M 162.107827 213.89811 
L 165.452703 213.89811 
L 165.452703 84.152186 
L 162.107827 84.152186 
z
" clip-path="url(#p25f647030b)" style="fill: #4c72b0; fill-opacity: 0.75; stroke: #ffffff; stroke-width: 0.345658; stroke-linejoin: miter"/>
   </g>
   <g id="patch_35">
    <path d="M 165.452703 213.89811 
L 168.797578 213.89811 
L 168.797578 89.169984 
L 165.452703 89.169984 
z
" clip-path="url(#p25f647030b)" style="fill: #4c72b0; fill-opacity: 0.75; stroke: #ffffff; stroke-width: 0.345658; stroke-linejoin: miter"/>
   </g>
   <g id="patch_36">
    <path d="M 168.797578 213.89811 
L 172.142454 213.89811 
L 172.142454 110.674834 
L 168.797578 110.674834 
z
" clip-path="url(#p25f647030b)" style="fill: #4c72b0; fill-opacity: 0.75; stroke: #ffffff; stroke-width: 0.345658; stroke-linejoin: miter"/>
   </g>
   <g id="patch_37">
    <path d="M 172.142454 213.89811 
L 175.48733 213.89811 
L 175.48733 131.462855 
L 172.142454 131.462855 
z
" clip-path="url(#p25f647030b)" style="fill: #4c72b0; fill-opacity: 0.75; stroke: #ffffff; stroke-width: 0.345658; stroke-linejoin: miter"/>
   </g>
   <g id="patch_38">
    <path d="M 175.48733 213.89811 
L 178.832206 213.89811 
L 178.832206 138.631138 
L 175.48733 138.631138 
z
" clip-path="url(#p25f647030b)" style="fill: #4c72b0; fill-opacity: 0.75; stroke: #ffffff; stroke-width: 0.345658; stroke-linejoin: miter"/>
   </g>
   <g id="patch_39">
    <path d="M 178.832206 213.89811 
L 182.177082 213.89811 
L 182.177082 142.573693 
L 178.832206 142.573693 
z
" clip-path="url(#p25f647030b)" style="fill: #4c72b0; fill-opacity: 0.75; stroke: #ffffff; stroke-width: 0.345658; stroke-linejoin: miter"/>
   </g>
   <g id="patch_40">
    <path d="M 182.177082 213.89811 
L 185.521958 213.89811 
L 185.521958 165.512199 
L 182.177082 165.512199 
z
" clip-path="url(#p25f647030b)" style="fill: #4c72b0; fill-opacity: 0.75; stroke: #ffffff; stroke-width: 0.345658; stroke-linejoin: miter"/>
   </g>
   <g id="patch_41">
    <path d="M 185.521958 213.89811 
L 188.866833 213.89811 
L 188.866833 173.397311 
L 185.521958 173.397311 
z
" clip-path="url(#p25f647030b)" style="fill: #4c72b0; fill-opacity: 0.75; stroke: #ffffff; stroke-width: 0.345658; stroke-linejoin: miter"/>
   </g>
   <g id="patch_42">
    <path d="M 188.866833 213.89811 
L 192.211709 213.89811 
L 192.211709 179.131937 
L 188.866833 179.131937 
z
" clip-path="url(#p25f647030b)" style="fill: #4c72b0; fill-opacity: 0.75; stroke: #ffffff; stroke-width: 0.345658; stroke-linejoin: miter"/>
   </g>
   <g id="patch_43">
    <path d="M 192.211709 213.89811 
L 195.556585 213.89811 
L 195.556585 185.583392 
L 192.211709 185.583392 
z
" clip-path="url(#p25f647030b)" style="fill: #4c72b0; fill-opacity: 0.75; stroke: #ffffff; stroke-width: 0.345658; stroke-linejoin: miter"/>
   </g>
   <g id="patch_44">
    <path d="M 195.556585 213.89811 
L 198.901461 213.89811 
L 198.901461 194.185332 
L 195.556585 194.185332 
z
" clip-path="url(#p25f647030b)" style="fill: #4c72b0; fill-opacity: 0.75; stroke: #ffffff; stroke-width: 0.345658; stroke-linejoin: miter"/>
   </g>
   <g id="patch_45">
    <path d="M 198.901461 213.89811 
L 202.246337 213.89811 
L 202.246337 199.919958 
L 198.901461 199.919958 
z
" clip-path="url(#p25f647030b)" style="fill: #4c72b0; fill-opacity: 0.75; stroke: #ffffff; stroke-width: 0.345658; stroke-linejoin: miter"/>
   </g>
   <g id="patch_46">
    <path d="M 202.246337 213.89811 
L 205.591212 213.89811 
L 205.591212 202.428857 
L 202.246337 202.428857 
z
" clip-path="url(#p25f647030b)" style="fill: #4c72b0; fill-opacity: 0.75; stroke: #ffffff; stroke-width: 0.345658; stroke-linejoin: miter"/>
   </g>
   <g id="patch_47">
    <path d="M 205.591212 213.89811 
L 208.936088 213.89811 
L 208.936088 203.5041 
L 205.591212 203.5041 
z
" clip-path="url(#p25f647030b)" style="fill: #4c72b0; fill-opacity: 0.75; stroke: #ffffff; stroke-width: 0.345658; stroke-linejoin: miter"/>
   </g>
   <g id="patch_48">
    <path d="M 208.936088 213.89811 
L 212.280964 213.89811 
L 212.280964 206.729827 
L 208.936088 206.729827 
z
" clip-path="url(#p25f647030b)" style="fill: #4c72b0; fill-opacity: 0.75; stroke: #ffffff; stroke-width: 0.345658; stroke-linejoin: miter"/>
   </g>
   <g id="patch_49">
    <path d="M 212.280964 213.89811 
L 215.62584 213.89811 
L 215.62584 208.880312 
L 212.280964 208.880312 
z
" clip-path="url(#p25f647030b)" style="fill: #4c72b0; fill-opacity: 0.75; stroke: #ffffff; stroke-width: 0.345658; stroke-linejoin: miter"/>
   </g>
   <g id="patch_50">
    <path d="M 215.62584 213.89811 
L 218.970716 213.89811 
L 218.970716 210.313969 
L 215.62584 210.313969 
z
" clip-path="url(#p25f647030b)" style="fill: #4c72b0; fill-opacity: 0.75; stroke: #ffffff; stroke-width: 0.345658; stroke-linejoin: miter"/>
   </g>
   <g id="patch_51">
    <path d="M 218.970716 213.89811 
L 222.315591 213.89811 
L 222.315591 212.464454 
L 218.970716 212.464454 
z
" clip-path="url(#p25f647030b)" style="fill: #4c72b0; fill-opacity: 0.75; stroke: #ffffff; stroke-width: 0.345658; stroke-linejoin: miter"/>
   </g>
   <g id="patch_52">
    <path d="M 222.315591 213.89811 
L 225.660467 213.89811 
L 225.660467 213.89811 
L 222.315591 213.89811 
z
" clip-path="url(#p25f647030b)" style="fill: #4c72b0; fill-opacity: 0.75; stroke: #ffffff; stroke-width: 0.345658; stroke-linejoin: miter"/>
   </g>
   <g id="patch_53">
    <path d="M 225.660467 213.89811 
L 229.005343 213.89811 
L 229.005343 212.822868 
L 225.660467 212.822868 
z
" clip-path="url(#p25f647030b)" style="fill: #4c72b0; fill-opacity: 0.75; stroke: #ffffff; stroke-width: 0.345658; stroke-linejoin: miter"/>
   </g>
   <g id="patch_54">
    <path d="M 229.005343 213.89811 
L 232.350219 213.89811 
L 232.350219 213.539696 
L 229.005343 213.539696 
z
" clip-path="url(#p25f647030b)" style="fill: #4c72b0; fill-opacity: 0.75; stroke: #ffffff; stroke-width: 0.345658; stroke-linejoin: miter"/>
   </g>
   <g id="line2d_13">
    <path d="M 217.62184 213.89811 
L 217.62184 22.72 
" clip-path="url(#p25f647030b)" style="fill: none; stroke-dasharray: 5.55,2.4; stroke-dashoffset: 0; stroke: #ff0000; stroke-width: 1.5"/>
   </g>
   <g id="patch_55">
    <path d="M 49.72 213.89811 
L 49.72 22.72 
" style="fill: none; stroke: #262626; stroke-width: 1.25; stroke-linejoin: miter; stroke-linecap: square"/>
   </g>
   <g id="patch_56">
    <path d="M 49.72 213.89811 
L 241.046896 213.89811 
" style="fill: none; stroke: #262626; stroke-width: 1.25; stroke-linejoin: miter; stroke-linecap: square"/>
   </g>
   <g id="text_15">
    <!-- H1-hESC (ASM), z = 2.81, p = .003 ** -->
    <g style="fill: #262626" transform="translate(49.72 16.72)scale(0.09 -0.09)">
     <defs>
      <path id="ArialMT-2c" d="M 569 0 
L 569 641 
L 1209 641 
L 1209 0 
Q 1209 -353 1084 -570 
Q 959 -788 688 -906 
L 531 -666 
Q 709 -588 793 -436 
Q 878 -284 888 0 
L 569 0 
z
" transform="scale(0.015625)"/>
      <path id="ArialMT-7a" d="M 125 0 
L 125 456 
L 2238 2881 
Q 1878 2863 1603 2863 
L 250 2863 
L 250 3319 
L 2963 3319 
L 2963 2947 
L 1166 841 
L 819 456 
Q 1197 484 1528 484 
L 3063 484 
L 3063 0 
L 125 0 
z
" transform="scale(0.015625)"/>
      <path id="ArialMT-3d" d="M 3381 2694 
L 356 2694 
L 356 3219 
L 3381 3219 
L 3381 2694 
z
M 3381 1303 
L 356 1303 
L 356 1828 
L 3381 1828 
L 3381 1303 
z
" transform="scale(0.015625)"/>
      <path id="ArialMT-38" d="M 1131 2484 
Q 781 2613 612 2850 
Q 444 3088 444 3419 
Q 444 3919 803 4259 
Q 1163 4600 1759 4600 
Q 2359 4600 2725 4251 
Q 3091 3903 3091 3403 
Q 3091 3084 2923 2848 
Q 2756 2613 2416 2484 
Q 2838 2347 3058 2040 
Q 3278 1734 3278 1309 
Q 3278 722 2862 322 
Q 2447 -78 1769 -78 
Q 1091 -78 675 323 
Q 259 725 259 1325 
Q 259 1772 486 2073 
Q 713 2375 1131 2484 
z
M 1019 3438 
Q 1019 3113 1228 2906 
Q 1438 2700 1772 2700 
Q 2097 2700 2305 2904 
Q 2513 3109 2513 3406 
Q 2513 3716 2298 3927 
Q 2084 4138 1766 4138 
Q 1444 4138 1231 3931 
Q 1019 3725 1019 3438 
z
M 838 1322 
Q 838 1081 952 856 
Q 1066 631 1291 507 
Q 1516 384 1775 384 
Q 2178 384 2440 643 
Q 2703 903 2703 1303 
Q 2703 1709 2433 1975 
Q 2163 2241 1756 2241 
Q 1359 2241 1098 1978 
Q 838 1716 838 1322 
z
" transform="scale(0.015625)"/>
      <path id="ArialMT-70" d="M 422 -1272 
L 422 3319 
L 934 3319 
L 934 2888 
Q 1116 3141 1344 3267 
Q 1572 3394 1897 3394 
Q 2322 3394 2647 3175 
Q 2972 2956 3137 2557 
Q 3303 2159 3303 1684 
Q 3303 1175 3120 767 
Q 2938 359 2589 142 
Q 2241 -75 1856 -75 
Q 1575 -75 1351 44 
Q 1128 163 984 344 
L 984 -1272 
L 422 -1272 
z
M 931 1641 
Q 931 1000 1190 694 
Q 1450 388 1819 388 
Q 2194 388 2461 705 
Q 2728 1022 2728 1688 
Q 2728 2322 2467 2637 
Q 2206 2953 1844 2953 
Q 1484 2953 1207 2617 
Q 931 2281 931 1641 
z
" transform="scale(0.015625)"/>
      <path id="ArialMT-2a" d="M 200 3741 
L 344 4184 
Q 841 4009 1066 3881 
Q 1006 4447 1003 4659 
L 1456 4659 
Q 1447 4350 1384 3884 
Q 1706 4047 2122 4184 
L 2266 3741 
Q 1869 3609 1488 3566 
Q 1678 3400 2025 2975 
L 1650 2709 
Q 1469 2956 1222 3381 
Q 991 2941 816 2709 
L 447 2975 
Q 809 3422 966 3566 
Q 563 3644 200 3741 
z
" transform="scale(0.015625)"/>
     </defs>
     <use xlink:href="#ArialMT-48"/>
     <use xlink:href="#ArialMT-31" x="72.216797"/>
     <use xlink:href="#ArialMT-2d" x="127.832031"/>
     <use xlink:href="#ArialMT-68" x="161.132812"/>
     <use xlink:href="#ArialMT-45" x="216.748047"/>
     <use xlink:href="#ArialMT-53" x="283.447266"/>
     <use xlink:href="#ArialMT-43" x="350.146484"/>
     <use xlink:href="#ArialMT-20" x="422.363281"/>
     <use xlink:href="#ArialMT-28" x="450.146484"/>
     <use xlink:href="#ArialMT-41" x="483.447266"/>
     <use xlink:href="#ArialMT-53" x="550.146484"/>
     <use xlink:href="#ArialMT-4d" x="616.845703"/>
     <use xlink:href="#ArialMT-29" x="700.146484"/>
     <use xlink:href="#ArialMT-2c" x="733.447266"/>
     <use xlink:href="#ArialMT-20" x="761.230469"/>
     <use xlink:href="#ArialMT-7a" x="789.013672"/>
     <use xlink:href="#ArialMT-20" x="839.013672"/>
     <use xlink:href="#ArialMT-3d" x="866.796875"/>
     <use xlink:href="#ArialMT-20" x="925.195312"/>
     <use xlink:href="#ArialMT-32" x="952.978516"/>
     <use xlink:href="#ArialMT-2e" x="1008.59375"/>
     <use xlink:href="#ArialMT-38" x="1036.376953"/>
     <use xlink:href="#ArialMT-31" x="1091.992188"/>
     <use xlink:href="#ArialMT-2c" x="1147.607422"/>
     <use xlink:href="#ArialMT-20" x="1175.390625"/>
     <use xlink:href="#ArialMT-70" x="1203.173828"/>
     <use xlink:href="#ArialMT-20" x="1258.789062"/>
     <use xlink:href="#ArialMT-3d" x="1286.572266"/>
     <use xlink:href="#ArialMT-20" x="1344.970703"/>
     <use xlink:href="#ArialMT-2e" x="1372.753906"/>
     <use xlink:href="#ArialMT-30" x="1400.537109"/>
     <use xlink:href="#ArialMT-30" x="1456.152344"/>
     <use xlink:href="#ArialMT-33" x="1511.767578"/>
     <use xlink:href="#ArialMT-20" x="1567.382812"/>
     <use xlink:href="#ArialMT-2a" x="1595.166016"/>
     <use xlink:href="#ArialMT-2a" x="1634.082031"/>
    </g>
   </g>
  </g>
 </g>
 <defs>
  <clipPath id="p25f647030b">
   <rect x="49.72" y="22.72" width="191.326896" height="191.17811"/>
  </clipPath>
 </defs>
</svg>
