<?xml version="1.0" encoding="utf-8" standalone="no"?>
<!DOCTYPE svg PUBLIC "-//W3C//DTD SVG 1.1//EN"
  "http://www.w3.org/Graphics/SVG/1.1/DTD/svg11.dtd">
<svg xmlns:xlink="http://www.w3.org/1999/xlink" width="255.11811pt" height="255.11811pt" viewBox="0 0 255.11811 255.11811" xmlns="http://www.w3.org/2000/svg" version="1.1">
 <metadata>
  <rdf:RDF xmlns:dc="http://purl.org/dc/elements/1.1/" xmlns:cc="http://creativecommons.org/ns#" xmlns:rdf="http://www.w3.org/1999/02/22-rdf-syntax-ns#">
   <cc:Work>
    <dc:type rdf:resource="http://purl.org/dc/dcmitype/StillImage"/>
    <dc:date>2022-05-04T10:19:15.670455</dc:date>
    <dc:format>image/svg+xml</dc:format>
    <dc:creator>
     <cc:Agent>
      <dc:title>Matplotlib v3.5.1, https://matplotlib.org/</dc:title>
     </cc:Agent>
    </dc:creator>
   </cc:Work>
  </rdf:RDF>
 </metadata>
 <defs>
  <style type="text/css">*{stroke-linejoin: round; stroke-linecap: butt}</style>
 </defs>
 <g id="figure_1">
  <g id="patch_1">
   <path d="M 0 255.11811 
L 255.11811 255.11811 
L 255.11811 0 
L 0 0 
z
" style="fill: #ffffff"/>
  </g>
  <g id="axes_1">
   <g id="patch_2">
    <path d="M 47.22 213.89811 
L 245.39811 213.89811 
L 245.39811 22.72 
L 47.22 22.72 
z
" style="fill: #ffffff"/>
   </g>
   <g id="matplotlib.axis_1">
    <g id="xtick_1">
     <g id="line2d_1">
      <defs>
       <path id="mea78087c46" d="M 0 0 
L 0 6 
" style="stroke: #444444; stroke-width: 1.25"/>
      </defs>
      <g>
       <use xlink:href="#mea78087c46" x="90.521651" y="213.89811" style="fill: #444444; stroke: #444444; stroke-width: 1.25"/>
      </g>
     </g>
     <g id="text_1">
      <!-- 600 -->
      <g style="fill: #444444" transform="translate(83.014386 229.840141)scale(0.09 -0.09)">
       <defs>
        <path id="ArialMT-36" d="M 3184 3459 
L 2625 3416 
Q 2550 3747 2413 3897 
Q 2184 4138 1850 4138 
Q 1581 4138 1378 3988 
Q 1113 3794 959 3422 
Q 806 3050 800 2363 
Q 1003 2672 1297 2822 
Q 1591 2972 1913 2972 
Q 2475 2972 2870 2558 
Q 3266 2144 3266 1488 
Q 3266 1056 3080 686 
Q 2894 316 2569 119 
Q 2244 -78 1831 -78 
Q 1128 -78 684 439 
Q 241 956 241 2144 
Q 241 3472 731 4075 
Q 1159 4600 1884 4600 
Q 2425 4600 2770 4297 
Q 3116 3994 3184 3459 
z
M 888 1484 
Q 888 1194 1011 928 
Q 1134 663 1356 523 
Q 1578 384 1822 384 
Q 2178 384 2434 671 
Q 2691 959 2691 1453 
Q 2691 1928 2437 2201 
Q 2184 2475 1800 2475 
Q 1419 2475 1153 2201 
Q 888 1928 888 1484 
z
" transform="scale(0.015625)"/>
        <path id="ArialMT-30" d="M 266 2259 
Q 266 3072 433 3567 
Q 600 4063 929 4331 
Q 1259 4600 1759 4600 
Q 2128 4600 2406 4451 
Q 2684 4303 2865 4023 
Q 3047 3744 3150 3342 
Q 3253 2941 3253 2259 
Q 3253 1453 3087 958 
Q 2922 463 2592 192 
Q 2263 -78 1759 -78 
Q 1097 -78 719 397 
Q 266 969 266 2259 
z
M 844 2259 
Q 844 1131 1108 757 
Q 1372 384 1759 384 
Q 2147 384 2411 759 
Q 2675 1134 2675 2259 
Q 2675 3391 2411 3762 
Q 2147 4134 1753 4134 
Q 1366 4134 1134 3806 
Q 844 3388 844 2259 
z
" transform="scale(0.015625)"/>
       </defs>
       <use xlink:href="#ArialMT-36"/>
       <use xlink:href="#ArialMT-30" x="55.615234"/>
       <use xlink:href="#ArialMT-30" x="111.230469"/>
      </g>
     </g>
    </g>
    <g id="xtick_2">
     <g id="line2d_2">
      <g>
       <use xlink:href="#mea78087c46" x="138.822434" y="213.89811" style="fill: #444444; stroke: #444444; stroke-width: 1.25"/>
      </g>
     </g>
     <g id="text_2">
      <!-- 650 -->
      <g style="fill: #444444" transform="translate(131.315168 229.840141)scale(0.09 -0.09)">
       <defs>
        <path id="ArialMT-35" d="M 266 1200 
L 856 1250 
Q 922 819 1161 601 
Q 1400 384 1738 384 
Q 2144 384 2425 690 
Q 2706 997 2706 1503 
Q 2706 1984 2436 2262 
Q 2166 2541 1728 2541 
Q 1456 2541 1237 2417 
Q 1019 2294 894 2097 
L 366 2166 
L 809 4519 
L 3088 4519 
L 3088 3981 
L 1259 3981 
L 1013 2750 
Q 1425 3038 1878 3038 
Q 2478 3038 2890 2622 
Q 3303 2206 3303 1553 
Q 3303 931 2941 478 
Q 2500 -78 1738 -78 
Q 1113 -78 717 272 
Q 322 622 266 1200 
z
" transform="scale(0.015625)"/>
       </defs>
       <use xlink:href="#ArialMT-36"/>
       <use xlink:href="#ArialMT-35" x="55.615234"/>
       <use xlink:href="#ArialMT-30" x="111.230469"/>
      </g>
     </g>
    </g>
    <g id="xtick_3">
     <g id="line2d_3">
      <g>
       <use xlink:href="#mea78087c46" x="187.123216" y="213.89811" style="fill: #444444; stroke: #444444; stroke-width: 1.25"/>
      </g>
     </g>
     <g id="text_3">
      <!-- 700 -->
      <g style="fill: #444444" transform="translate(179.615951 229.840141)scale(0.09 -0.09)">
       <defs>
        <path id="ArialMT-37" d="M 303 3981 
L 303 4522 
L 3269 4522 
L 3269 4084 
Q 2831 3619 2401 2847 
Q 1972 2075 1738 1259 
Q 1569 684 1522 0 
L 944 0 
Q 953 541 1156 1306 
Q 1359 2072 1739 2783 
Q 2119 3494 2547 3981 
L 303 3981 
z
" transform="scale(0.015625)"/>
       </defs>
       <use xlink:href="#ArialMT-37"/>
       <use xlink:href="#ArialMT-30" x="55.615234"/>
       <use xlink:href="#ArialMT-30" x="111.230469"/>
      </g>
     </g>
    </g>
    <g id="xtick_4">
     <g id="line2d_4">
      <g>
       <use xlink:href="#mea78087c46" x="235.423999" y="213.89811" style="fill: #444444; stroke: #444444; stroke-width: 1.25"/>
      </g>
     </g>
     <g id="text_4">
      <!-- 750 -->
      <g style="fill: #444444" transform="translate(227.916733 229.840141)scale(0.09 -0.09)">
       <use xlink:href="#ArialMT-37"/>
       <use xlink:href="#ArialMT-35" x="55.615234"/>
       <use xlink:href="#ArialMT-30" x="111.230469"/>
      </g>
     </g>
    </g>
    <g id="text_5">
     <!-- Exp. Random Overlap of eGenes in ASTADs -->
     <g style="fill: #444444" transform="translate(57.351789 242.186235)scale(0.09 -0.09)">
      <defs>
       <path id="ArialMT-45" d="M 506 0 
L 506 4581 
L 3819 4581 
L 3819 4041 
L 1113 4041 
L 1113 2638 
L 3647 2638 
L 3647 2100 
L 1113 2100 
L 1113 541 
L 3925 541 
L 3925 0 
L 506 0 
z
" transform="scale(0.015625)"/>
       <path id="ArialMT-78" d="M 47 0 
L 1259 1725 
L 138 3319 
L 841 3319 
L 1350 2541 
Q 1494 2319 1581 2169 
Q 1719 2375 1834 2534 
L 2394 3319 
L 3066 3319 
L 1919 1756 
L 3153 0 
L 2463 0 
L 1781 1031 
L 1600 1309 
L 728 0 
L 47 0 
z
" transform="scale(0.015625)"/>
       <path id="ArialMT-70" d="M 422 -1272 
L 422 3319 
L 934 3319 
L 934 2888 
Q 1116 3141 1344 3267 
Q 1572 3394 1897 3394 
Q 2322 3394 2647 3175 
Q 2972 2956 3137 2557 
Q 3303 2159 3303 1684 
Q 3303 1175 3120 767 
Q 2938 359 2589 142 
Q 2241 -75 1856 -75 
Q 1575 -75 1351 44 
Q 1128 163 984 344 
L 984 -1272 
L 422 -1272 
z
M 931 1641 
Q 931 1000 1190 694 
Q 1450 388 1819 388 
Q 2194 388 2461 705 
Q 2728 1022 2728 1688 
Q 2728 2322 2467 2637 
Q 2206 2953 1844 2953 
Q 1484 2953 1207 2617 
Q 931 2281 931 1641 
z
" transform="scale(0.015625)"/>
       <path id="ArialMT-2e" d="M 581 0 
L 581 641 
L 1222 641 
L 1222 0 
L 581 0 
z
" transform="scale(0.015625)"/>
       <path id="ArialMT-20" transform="scale(0.015625)"/>
       <path id="ArialMT-52" d="M 503 0 
L 503 4581 
L 2534 4581 
Q 3147 4581 3465 4457 
Q 3784 4334 3975 4021 
Q 4166 3709 4166 3331 
Q 4166 2844 3850 2509 
Q 3534 2175 2875 2084 
Q 3116 1969 3241 1856 
Q 3506 1613 3744 1247 
L 4541 0 
L 3778 0 
L 3172 953 
Q 2906 1366 2734 1584 
Q 2563 1803 2427 1890 
Q 2291 1978 2150 2013 
Q 2047 2034 1813 2034 
L 1109 2034 
L 1109 0 
L 503 0 
z
M 1109 2559 
L 2413 2559 
Q 2828 2559 3062 2645 
Q 3297 2731 3419 2920 
Q 3541 3109 3541 3331 
Q 3541 3656 3305 3865 
Q 3069 4075 2559 4075 
L 1109 4075 
L 1109 2559 
z
" transform="scale(0.015625)"/>
       <path id="ArialMT-61" d="M 2588 409 
Q 2275 144 1986 34 
Q 1697 -75 1366 -75 
Q 819 -75 525 192 
Q 231 459 231 875 
Q 231 1119 342 1320 
Q 453 1522 633 1644 
Q 813 1766 1038 1828 
Q 1203 1872 1538 1913 
Q 2219 1994 2541 2106 
Q 2544 2222 2544 2253 
Q 2544 2597 2384 2738 
Q 2169 2928 1744 2928 
Q 1347 2928 1158 2789 
Q 969 2650 878 2297 
L 328 2372 
Q 403 2725 575 2942 
Q 747 3159 1072 3276 
Q 1397 3394 1825 3394 
Q 2250 3394 2515 3294 
Q 2781 3194 2906 3042 
Q 3031 2891 3081 2659 
Q 3109 2516 3109 2141 
L 3109 1391 
Q 3109 606 3145 398 
Q 3181 191 3288 0 
L 2700 0 
Q 2613 175 2588 409 
z
M 2541 1666 
Q 2234 1541 1622 1453 
Q 1275 1403 1131 1340 
Q 988 1278 909 1158 
Q 831 1038 831 891 
Q 831 666 1001 516 
Q 1172 366 1500 366 
Q 1825 366 2078 508 
Q 2331 650 2450 897 
Q 2541 1088 2541 1459 
L 2541 1666 
z
" transform="scale(0.015625)"/>
       <path id="ArialMT-6e" d="M 422 0 
L 422 3319 
L 928 3319 
L 928 2847 
Q 1294 3394 1984 3394 
Q 2284 3394 2536 3286 
Q 2788 3178 2913 3003 
Q 3038 2828 3088 2588 
Q 3119 2431 3119 2041 
L 3119 0 
L 2556 0 
L 2556 2019 
Q 2556 2363 2490 2533 
Q 2425 2703 2258 2804 
Q 2091 2906 1866 2906 
Q 1506 2906 1245 2678 
Q 984 2450 984 1813 
L 984 0 
L 422 0 
z
" transform="scale(0.015625)"/>
       <path id="ArialMT-64" d="M 2575 0 
L 2575 419 
Q 2259 -75 1647 -75 
Q 1250 -75 917 144 
Q 584 363 401 755 
Q 219 1147 219 1656 
Q 219 2153 384 2558 
Q 550 2963 881 3178 
Q 1213 3394 1622 3394 
Q 1922 3394 2156 3267 
Q 2391 3141 2538 2938 
L 2538 4581 
L 3097 4581 
L 3097 0 
L 2575 0 
z
M 797 1656 
Q 797 1019 1065 703 
Q 1334 388 1700 388 
Q 2069 388 2326 689 
Q 2584 991 2584 1609 
Q 2584 2291 2321 2609 
Q 2059 2928 1675 2928 
Q 1300 2928 1048 2622 
Q 797 2316 797 1656 
z
" transform="scale(0.015625)"/>
       <path id="ArialMT-6f" d="M 213 1659 
Q 213 2581 725 3025 
Q 1153 3394 1769 3394 
Q 2453 3394 2887 2945 
Q 3322 2497 3322 1706 
Q 3322 1066 3130 698 
Q 2938 331 2570 128 
Q 2203 -75 1769 -75 
Q 1072 -75 642 372 
Q 213 819 213 1659 
z
M 791 1659 
Q 791 1022 1069 705 
Q 1347 388 1769 388 
Q 2188 388 2466 706 
Q 2744 1025 2744 1678 
Q 2744 2294 2464 2611 
Q 2184 2928 1769 2928 
Q 1347 2928 1069 2612 
Q 791 2297 791 1659 
z
" transform="scale(0.015625)"/>
       <path id="ArialMT-6d" d="M 422 0 
L 422 3319 
L 925 3319 
L 925 2853 
Q 1081 3097 1340 3245 
Q 1600 3394 1931 3394 
Q 2300 3394 2536 3241 
Q 2772 3088 2869 2813 
Q 3263 3394 3894 3394 
Q 4388 3394 4653 3120 
Q 4919 2847 4919 2278 
L 4919 0 
L 4359 0 
L 4359 2091 
Q 4359 2428 4304 2576 
Q 4250 2725 4106 2815 
Q 3963 2906 3769 2906 
Q 3419 2906 3187 2673 
Q 2956 2441 2956 1928 
L 2956 0 
L 2394 0 
L 2394 2156 
Q 2394 2531 2256 2718 
Q 2119 2906 1806 2906 
Q 1569 2906 1367 2781 
Q 1166 2656 1075 2415 
Q 984 2175 984 1722 
L 984 0 
L 422 0 
z
" transform="scale(0.015625)"/>
       <path id="ArialMT-4f" d="M 309 2231 
Q 309 3372 921 4017 
Q 1534 4663 2503 4663 
Q 3138 4663 3647 4359 
Q 4156 4056 4423 3514 
Q 4691 2972 4691 2284 
Q 4691 1588 4409 1038 
Q 4128 488 3612 205 
Q 3097 -78 2500 -78 
Q 1853 -78 1343 234 
Q 834 547 571 1087 
Q 309 1628 309 2231 
z
M 934 2222 
Q 934 1394 1379 917 
Q 1825 441 2497 441 
Q 3181 441 3623 922 
Q 4066 1403 4066 2288 
Q 4066 2847 3877 3264 
Q 3688 3681 3323 3911 
Q 2959 4141 2506 4141 
Q 1863 4141 1398 3698 
Q 934 3256 934 2222 
z
" transform="scale(0.015625)"/>
       <path id="ArialMT-76" d="M 1344 0 
L 81 3319 
L 675 3319 
L 1388 1331 
Q 1503 1009 1600 663 
Q 1675 925 1809 1294 
L 2547 3319 
L 3125 3319 
L 1869 0 
L 1344 0 
z
" transform="scale(0.015625)"/>
       <path id="ArialMT-65" d="M 2694 1069 
L 3275 997 
Q 3138 488 2766 206 
Q 2394 -75 1816 -75 
Q 1088 -75 661 373 
Q 234 822 234 1631 
Q 234 2469 665 2931 
Q 1097 3394 1784 3394 
Q 2450 3394 2872 2941 
Q 3294 2488 3294 1666 
Q 3294 1616 3291 1516 
L 816 1516 
Q 847 969 1125 678 
Q 1403 388 1819 388 
Q 2128 388 2347 550 
Q 2566 713 2694 1069 
z
M 847 1978 
L 2700 1978 
Q 2663 2397 2488 2606 
Q 2219 2931 1791 2931 
Q 1403 2931 1139 2672 
Q 875 2413 847 1978 
z
" transform="scale(0.015625)"/>
       <path id="ArialMT-72" d="M 416 0 
L 416 3319 
L 922 3319 
L 922 2816 
Q 1116 3169 1280 3281 
Q 1444 3394 1641 3394 
Q 1925 3394 2219 3213 
L 2025 2691 
Q 1819 2813 1613 2813 
Q 1428 2813 1281 2702 
Q 1134 2591 1072 2394 
Q 978 2094 978 1738 
L 978 0 
L 416 0 
z
" transform="scale(0.015625)"/>
       <path id="ArialMT-6c" d="M 409 0 
L 409 4581 
L 972 4581 
L 972 0 
L 409 0 
z
" transform="scale(0.015625)"/>
       <path id="ArialMT-66" d="M 556 0 
L 556 2881 
L 59 2881 
L 59 3319 
L 556 3319 
L 556 3672 
Q 556 4006 616 4169 
Q 697 4388 901 4523 
Q 1106 4659 1475 4659 
Q 1713 4659 2000 4603 
L 1916 4113 
Q 1741 4144 1584 4144 
Q 1328 4144 1222 4034 
Q 1116 3925 1116 3625 
L 1116 3319 
L 1763 3319 
L 1763 2881 
L 1116 2881 
L 1116 0 
L 556 0 
z
" transform="scale(0.015625)"/>
       <path id="ArialMT-47" d="M 2638 1797 
L 2638 2334 
L 4578 2338 
L 4578 638 
Q 4131 281 3656 101 
Q 3181 -78 2681 -78 
Q 2006 -78 1454 211 
Q 903 500 622 1047 
Q 341 1594 341 2269 
Q 341 2938 620 3517 
Q 900 4097 1425 4378 
Q 1950 4659 2634 4659 
Q 3131 4659 3532 4498 
Q 3934 4338 4162 4050 
Q 4391 3763 4509 3300 
L 3963 3150 
Q 3859 3500 3706 3700 
Q 3553 3900 3268 4020 
Q 2984 4141 2638 4141 
Q 2222 4141 1919 4014 
Q 1616 3888 1430 3681 
Q 1244 3475 1141 3228 
Q 966 2803 966 2306 
Q 966 1694 1177 1281 
Q 1388 869 1791 669 
Q 2194 469 2647 469 
Q 3041 469 3416 620 
Q 3791 772 3984 944 
L 3984 1797 
L 2638 1797 
z
" transform="scale(0.015625)"/>
       <path id="ArialMT-73" d="M 197 991 
L 753 1078 
Q 800 744 1014 566 
Q 1228 388 1613 388 
Q 2000 388 2187 545 
Q 2375 703 2375 916 
Q 2375 1106 2209 1216 
Q 2094 1291 1634 1406 
Q 1016 1563 777 1677 
Q 538 1791 414 1992 
Q 291 2194 291 2438 
Q 291 2659 392 2848 
Q 494 3038 669 3163 
Q 800 3259 1026 3326 
Q 1253 3394 1513 3394 
Q 1903 3394 2198 3281 
Q 2494 3169 2634 2976 
Q 2775 2784 2828 2463 
L 2278 2388 
Q 2241 2644 2061 2787 
Q 1881 2931 1553 2931 
Q 1166 2931 1000 2803 
Q 834 2675 834 2503 
Q 834 2394 903 2306 
Q 972 2216 1119 2156 
Q 1203 2125 1616 2013 
Q 2213 1853 2448 1751 
Q 2684 1650 2818 1456 
Q 2953 1263 2953 975 
Q 2953 694 2789 445 
Q 2625 197 2315 61 
Q 2006 -75 1616 -75 
Q 969 -75 630 194 
Q 291 463 197 991 
z
" transform="scale(0.015625)"/>
       <path id="ArialMT-69" d="M 425 3934 
L 425 4581 
L 988 4581 
L 988 3934 
L 425 3934 
z
M 425 0 
L 425 3319 
L 988 3319 
L 988 0 
L 425 0 
z
" transform="scale(0.015625)"/>
       <path id="ArialMT-41" d="M -9 0 
L 1750 4581 
L 2403 4581 
L 4278 0 
L 3588 0 
L 3053 1388 
L 1138 1388 
L 634 0 
L -9 0 
z
M 1313 1881 
L 2866 1881 
L 2388 3150 
Q 2169 3728 2063 4100 
Q 1975 3659 1816 3225 
L 1313 1881 
z
" transform="scale(0.015625)"/>
       <path id="ArialMT-53" d="M 288 1472 
L 859 1522 
Q 900 1178 1048 958 
Q 1197 738 1509 602 
Q 1822 466 2213 466 
Q 2559 466 2825 569 
Q 3091 672 3220 851 
Q 3350 1031 3350 1244 
Q 3350 1459 3225 1620 
Q 3100 1781 2813 1891 
Q 2628 1963 1997 2114 
Q 1366 2266 1113 2400 
Q 784 2572 623 2826 
Q 463 3081 463 3397 
Q 463 3744 659 4045 
Q 856 4347 1234 4503 
Q 1613 4659 2075 4659 
Q 2584 4659 2973 4495 
Q 3363 4331 3572 4012 
Q 3781 3694 3797 3291 
L 3216 3247 
Q 3169 3681 2898 3903 
Q 2628 4125 2100 4125 
Q 1550 4125 1298 3923 
Q 1047 3722 1047 3438 
Q 1047 3191 1225 3031 
Q 1400 2872 2139 2705 
Q 2878 2538 3153 2413 
Q 3553 2228 3743 1945 
Q 3934 1663 3934 1294 
Q 3934 928 3725 604 
Q 3516 281 3123 101 
Q 2731 -78 2241 -78 
Q 1619 -78 1198 103 
Q 778 284 539 648 
Q 300 1013 288 1472 
z
" transform="scale(0.015625)"/>
       <path id="ArialMT-54" d="M 1659 0 
L 1659 4041 
L 150 4041 
L 150 4581 
L 3781 4581 
L 3781 4041 
L 2266 4041 
L 2266 0 
L 1659 0 
z
" transform="scale(0.015625)"/>
       <path id="ArialMT-44" d="M 494 0 
L 494 4581 
L 2072 4581 
Q 2606 4581 2888 4516 
Q 3281 4425 3559 4188 
Q 3922 3881 4101 3404 
Q 4281 2928 4281 2316 
Q 4281 1794 4159 1391 
Q 4038 988 3847 723 
Q 3656 459 3429 307 
Q 3203 156 2883 78 
Q 2563 0 2147 0 
L 494 0 
z
M 1100 541 
L 2078 541 
Q 2531 541 2789 625 
Q 3047 709 3200 863 
Q 3416 1078 3536 1442 
Q 3656 1806 3656 2325 
Q 3656 3044 3420 3430 
Q 3184 3816 2847 3947 
Q 2603 4041 2063 4041 
L 1100 4041 
L 1100 541 
z
" transform="scale(0.015625)"/>
      </defs>
      <use xlink:href="#ArialMT-45"/>
      <use xlink:href="#ArialMT-78" x="66.699219"/>
      <use xlink:href="#ArialMT-70" x="116.699219"/>
      <use xlink:href="#ArialMT-2e" x="172.314453"/>
      <use xlink:href="#ArialMT-20" x="200.097656"/>
      <use xlink:href="#ArialMT-52" x="227.880859"/>
      <use xlink:href="#ArialMT-61" x="300.097656"/>
      <use xlink:href="#ArialMT-6e" x="355.712891"/>
      <use xlink:href="#ArialMT-64" x="411.328125"/>
      <use xlink:href="#ArialMT-6f" x="466.943359"/>
      <use xlink:href="#ArialMT-6d" x="522.558594"/>
      <use xlink:href="#ArialMT-20" x="605.859375"/>
      <use xlink:href="#ArialMT-4f" x="633.642578"/>
      <use xlink:href="#ArialMT-76" x="711.425781"/>
      <use xlink:href="#ArialMT-65" x="761.425781"/>
      <use xlink:href="#ArialMT-72" x="817.041016"/>
      <use xlink:href="#ArialMT-6c" x="850.341797"/>
      <use xlink:href="#ArialMT-61" x="872.558594"/>
      <use xlink:href="#ArialMT-70" x="928.173828"/>
      <use xlink:href="#ArialMT-20" x="983.789062"/>
      <use xlink:href="#ArialMT-6f" x="1011.572266"/>
      <use xlink:href="#ArialMT-66" x="1067.1875"/>
      <use xlink:href="#ArialMT-20" x="1094.970703"/>
      <use xlink:href="#ArialMT-65" x="1122.753906"/>
      <use xlink:href="#ArialMT-47" x="1178.369141"/>
      <use xlink:href="#ArialMT-65" x="1256.152344"/>
      <use xlink:href="#ArialMT-6e" x="1311.767578"/>
      <use xlink:href="#ArialMT-65" x="1367.382812"/>
      <use xlink:href="#ArialMT-73" x="1422.998047"/>
      <use xlink:href="#ArialMT-20" x="1472.998047"/>
      <use xlink:href="#ArialMT-69" x="1500.78125"/>
      <use xlink:href="#ArialMT-6e" x="1522.998047"/>
      <use xlink:href="#ArialMT-20" x="1578.613281"/>
      <use xlink:href="#ArialMT-41" x="1600.896484"/>
      <use xlink:href="#ArialMT-53" x="1667.595703"/>
      <use xlink:href="#ArialMT-54" x="1734.294922"/>
      <use xlink:href="#ArialMT-41" x="1788.003906"/>
      <use xlink:href="#ArialMT-44" x="1854.703125"/>
      <use xlink:href="#ArialMT-73" x="1926.919922"/>
     </g>
    </g>
   </g>
   <g id="matplotlib.axis_2">
    <g id="ytick_1">
     <g id="line2d_5">
      <defs>
       <path id="me8d2953e7e" d="M 0 0 
L -6 0 
" style="stroke: #444444; stroke-width: 1.25"/>
      </defs>
      <g>
       <use xlink:href="#me8d2953e7e" x="47.22" y="213.89811" style="fill: #444444; stroke: #444444; stroke-width: 1.25"/>
      </g>
     </g>
     <g id="text_6">
      <!-- 0 -->
      <g style="fill: #444444" transform="translate(32.715156 217.119126)scale(0.09 -0.09)">
       <use xlink:href="#ArialMT-30"/>
      </g>
     </g>
    </g>
    <g id="ytick_2">
     <g id="line2d_6">
      <g>
       <use xlink:href="#me8d2953e7e" x="47.22" y="173.793619" style="fill: #444444; stroke: #444444; stroke-width: 1.25"/>
      </g>
     </g>
     <g id="text_7">
      <!-- 50 -->
      <g style="fill: #444444" transform="translate(27.710313 177.014635)scale(0.09 -0.09)">
       <use xlink:href="#ArialMT-35"/>
       <use xlink:href="#ArialMT-30" x="55.615234"/>
      </g>
     </g>
    </g>
    <g id="ytick_3">
     <g id="line2d_7">
      <g>
       <use xlink:href="#me8d2953e7e" x="47.22" y="133.689128" style="fill: #444444; stroke: #444444; stroke-width: 1.25"/>
      </g>
     </g>
     <g id="text_8">
      <!-- 100 -->
      <g style="fill: #444444" transform="translate(22.705469 136.910143)scale(0.09 -0.09)">
       <defs>
        <path id="ArialMT-31" d="M 2384 0 
L 1822 0 
L 1822 3584 
Q 1619 3391 1289 3197 
Q 959 3003 697 2906 
L 697 3450 
Q 1169 3672 1522 3987 
Q 1875 4303 2022 4600 
L 2384 4600 
L 2384 0 
z
" transform="scale(0.015625)"/>
       </defs>
       <use xlink:href="#ArialMT-31"/>
       <use xlink:href="#ArialMT-30" x="55.615234"/>
       <use xlink:href="#ArialMT-30" x="111.230469"/>
      </g>
     </g>
    </g>
    <g id="ytick_4">
     <g id="line2d_8">
      <g>
       <use xlink:href="#me8d2953e7e" x="47.22" y="93.584636" style="fill: #444444; stroke: #444444; stroke-width: 1.25"/>
      </g>
     </g>
     <g id="text_9">
      <!-- 150 -->
      <g style="fill: #444444" transform="translate(22.705469 96.805652)scale(0.09 -0.09)">
       <use xlink:href="#ArialMT-31"/>
       <use xlink:href="#ArialMT-35" x="55.615234"/>
       <use xlink:href="#ArialMT-30" x="111.230469"/>
      </g>
     </g>
    </g>
    <g id="ytick_5">
     <g id="line2d_9">
      <g>
       <use xlink:href="#me8d2953e7e" x="47.22" y="53.480145" style="fill: #444444; stroke: #444444; stroke-width: 1.25"/>
      </g>
     </g>
     <g id="text_10">
      <!-- 200 -->
      <g style="fill: #444444" transform="translate(22.705469 56.70116)scale(0.09 -0.09)">
       <defs>
        <path id="ArialMT-32" d="M 3222 541 
L 3222 0 
L 194 0 
Q 188 203 259 391 
Q 375 700 629 1000 
Q 884 1300 1366 1694 
Q 2113 2306 2375 2664 
Q 2638 3022 2638 3341 
Q 2638 3675 2398 3904 
Q 2159 4134 1775 4134 
Q 1369 4134 1125 3890 
Q 881 3647 878 3216 
L 300 3275 
Q 359 3922 746 4261 
Q 1134 4600 1788 4600 
Q 2447 4600 2831 4234 
Q 3216 3869 3216 3328 
Q 3216 3053 3103 2787 
Q 2991 2522 2730 2228 
Q 2469 1934 1863 1422 
Q 1356 997 1212 845 
Q 1069 694 975 541 
L 3222 541 
z
" transform="scale(0.015625)"/>
       </defs>
       <use xlink:href="#ArialMT-32"/>
       <use xlink:href="#ArialMT-30" x="55.615234"/>
       <use xlink:href="#ArialMT-30" x="111.230469"/>
      </g>
     </g>
    </g>
    <g id="text_11">
     <!-- Frequency -->
     <g style="fill: #444444" transform="translate(16.81125 139.568039)rotate(-90)scale(0.09 -0.09)">
      <defs>
       <path id="ArialMT-46" d="M 525 0 
L 525 4581 
L 3616 4581 
L 3616 4041 
L 1131 4041 
L 1131 2622 
L 3281 2622 
L 3281 2081 
L 1131 2081 
L 1131 0 
L 525 0 
z
" transform="scale(0.015625)"/>
       <path id="ArialMT-71" d="M 2538 -1272 
L 2538 353 
Q 2406 169 2170 47 
Q 1934 -75 1669 -75 
Q 1078 -75 651 397 
Q 225 869 225 1691 
Q 225 2191 398 2587 
Q 572 2984 901 3189 
Q 1231 3394 1625 3394 
Q 2241 3394 2594 2875 
L 2594 3319 
L 3100 3319 
L 3100 -1272 
L 2538 -1272 
z
M 803 1669 
Q 803 1028 1072 708 
Q 1341 388 1716 388 
Q 2075 388 2334 692 
Q 2594 997 2594 1619 
Q 2594 2281 2320 2615 
Q 2047 2950 1678 2950 
Q 1313 2950 1058 2639 
Q 803 2328 803 1669 
z
" transform="scale(0.015625)"/>
       <path id="ArialMT-75" d="M 2597 0 
L 2597 488 
Q 2209 -75 1544 -75 
Q 1250 -75 995 37 
Q 741 150 617 320 
Q 494 491 444 738 
Q 409 903 409 1263 
L 409 3319 
L 972 3319 
L 972 1478 
Q 972 1038 1006 884 
Q 1059 663 1231 536 
Q 1403 409 1656 409 
Q 1909 409 2131 539 
Q 2353 669 2445 892 
Q 2538 1116 2538 1541 
L 2538 3319 
L 3100 3319 
L 3100 0 
L 2597 0 
z
" transform="scale(0.015625)"/>
       <path id="ArialMT-63" d="M 2588 1216 
L 3141 1144 
Q 3050 572 2676 248 
Q 2303 -75 1759 -75 
Q 1078 -75 664 370 
Q 250 816 250 1647 
Q 250 2184 428 2587 
Q 606 2991 970 3192 
Q 1334 3394 1763 3394 
Q 2303 3394 2647 3120 
Q 2991 2847 3088 2344 
L 2541 2259 
Q 2463 2594 2264 2762 
Q 2066 2931 1784 2931 
Q 1359 2931 1093 2626 
Q 828 2322 828 1663 
Q 828 994 1084 691 
Q 1341 388 1753 388 
Q 2084 388 2306 591 
Q 2528 794 2588 1216 
z
" transform="scale(0.015625)"/>
       <path id="ArialMT-79" d="M 397 -1278 
L 334 -750 
Q 519 -800 656 -800 
Q 844 -800 956 -737 
Q 1069 -675 1141 -563 
Q 1194 -478 1313 -144 
Q 1328 -97 1363 -6 
L 103 3319 
L 709 3319 
L 1400 1397 
Q 1534 1031 1641 628 
Q 1738 1016 1872 1384 
L 2581 3319 
L 3144 3319 
L 1881 -56 
Q 1678 -603 1566 -809 
Q 1416 -1088 1222 -1217 
Q 1028 -1347 759 -1347 
Q 597 -1347 397 -1278 
z
" transform="scale(0.015625)"/>
      </defs>
      <use xlink:href="#ArialMT-46"/>
      <use xlink:href="#ArialMT-72" x="61.083984"/>
      <use xlink:href="#ArialMT-65" x="94.384766"/>
      <use xlink:href="#ArialMT-71" x="150"/>
      <use xlink:href="#ArialMT-75" x="205.615234"/>
      <use xlink:href="#ArialMT-65" x="261.230469"/>
      <use xlink:href="#ArialMT-6e" x="316.845703"/>
      <use xlink:href="#ArialMT-63" x="372.460938"/>
      <use xlink:href="#ArialMT-79" x="422.460938"/>
     </g>
    </g>
   </g>
   <g id="patch_3">
    <path d="M 56.228096 213.89811 
L 57.194112 213.89811 
L 57.194112 213.09602 
L 56.228096 213.09602 
z
" clip-path="url(#p15652a7879)" style="fill: #4c72b0; fill-opacity: 0.75; stroke: #ffffff; stroke-width: 0.126579; stroke-linejoin: miter"/>
   </g>
   <g id="patch_4">
    <path d="M 57.194112 213.89811 
L 58.160127 213.89811 
L 58.160127 213.89811 
L 57.194112 213.89811 
z
" clip-path="url(#p15652a7879)" style="fill: #4c72b0; fill-opacity: 0.75; stroke: #ffffff; stroke-width: 0.126579; stroke-linejoin: miter"/>
   </g>
   <g id="patch_5">
    <path d="M 58.160127 213.89811 
L 59.126143 213.89811 
L 59.126143 213.89811 
L 58.160127 213.89811 
z
" clip-path="url(#p15652a7879)" style="fill: #4c72b0; fill-opacity: 0.75; stroke: #ffffff; stroke-width: 0.126579; stroke-linejoin: miter"/>
   </g>
   <g id="patch_6">
    <path d="M 59.126143 213.89811 
L 60.092159 213.89811 
L 60.092159 213.09602 
L 59.126143 213.09602 
z
" clip-path="url(#p15652a7879)" style="fill: #4c72b0; fill-opacity: 0.75; stroke: #ffffff; stroke-width: 0.126579; stroke-linejoin: miter"/>
   </g>
   <g id="patch_7">
    <path d="M 60.092159 213.89811 
L 61.058174 213.89811 
L 61.058174 212.293931 
L 60.092159 212.293931 
z
" clip-path="url(#p15652a7879)" style="fill: #4c72b0; fill-opacity: 0.75; stroke: #ffffff; stroke-width: 0.126579; stroke-linejoin: miter"/>
   </g>
   <g id="patch_8">
    <path d="M 61.058174 213.89811 
L 62.02419 213.89811 
L 62.02419 213.09602 
L 61.058174 213.09602 
z
" clip-path="url(#p15652a7879)" style="fill: #4c72b0; fill-opacity: 0.75; stroke: #ffffff; stroke-width: 0.126579; stroke-linejoin: miter"/>
   </g>
   <g id="patch_9">
    <path d="M 62.02419 213.89811 
L 62.990205 213.89811 
L 62.990205 212.293931 
L 62.02419 212.293931 
z
" clip-path="url(#p15652a7879)" style="fill: #4c72b0; fill-opacity: 0.75; stroke: #ffffff; stroke-width: 0.126579; stroke-linejoin: miter"/>
   </g>
   <g id="patch_10">
    <path d="M 62.990205 213.89811 
L 63.956221 213.89811 
L 63.956221 212.293931 
L 62.990205 212.293931 
z
" clip-path="url(#p15652a7879)" style="fill: #4c72b0; fill-opacity: 0.75; stroke: #ffffff; stroke-width: 0.126579; stroke-linejoin: miter"/>
   </g>
   <g id="patch_11">
    <path d="M 63.956221 213.89811 
L 64.922237 213.89811 
L 64.922237 211.491841 
L 63.956221 211.491841 
z
" clip-path="url(#p15652a7879)" style="fill: #4c72b0; fill-opacity: 0.75; stroke: #ffffff; stroke-width: 0.126579; stroke-linejoin: miter"/>
   </g>
   <g id="patch_12">
    <path d="M 64.922237 213.89811 
L 65.888252 213.89811 
L 65.888252 212.293931 
L 64.922237 212.293931 
z
" clip-path="url(#p15652a7879)" style="fill: #4c72b0; fill-opacity: 0.75; stroke: #ffffff; stroke-width: 0.126579; stroke-linejoin: miter"/>
   </g>
   <g id="patch_13">
    <path d="M 65.888252 213.89811 
L 66.854268 213.89811 
L 66.854268 212.293931 
L 65.888252 212.293931 
z
" clip-path="url(#p15652a7879)" style="fill: #4c72b0; fill-opacity: 0.75; stroke: #ffffff; stroke-width: 0.126579; stroke-linejoin: miter"/>
   </g>
   <g id="patch_14">
    <path d="M 66.854268 213.89811 
L 67.820284 213.89811 
L 67.820284 213.89811 
L 66.854268 213.89811 
z
" clip-path="url(#p15652a7879)" style="fill: #4c72b0; fill-opacity: 0.75; stroke: #ffffff; stroke-width: 0.126579; stroke-linejoin: miter"/>
   </g>
   <g id="patch_15">
    <path d="M 67.820284 213.89811 
L 68.786299 213.89811 
L 68.786299 212.293931 
L 67.820284 212.293931 
z
" clip-path="url(#p15652a7879)" style="fill: #4c72b0; fill-opacity: 0.75; stroke: #ffffff; stroke-width: 0.126579; stroke-linejoin: miter"/>
   </g>
   <g id="patch_16">
    <path d="M 68.786299 213.89811 
L 69.752315 213.89811 
L 69.752315 211.491841 
L 68.786299 211.491841 
z
" clip-path="url(#p15652a7879)" style="fill: #4c72b0; fill-opacity: 0.75; stroke: #ffffff; stroke-width: 0.126579; stroke-linejoin: miter"/>
   </g>
   <g id="patch_17">
    <path d="M 69.752315 213.89811 
L 70.718331 213.89811 
L 70.718331 209.887661 
L 69.752315 209.887661 
z
" clip-path="url(#p15652a7879)" style="fill: #4c72b0; fill-opacity: 0.75; stroke: #ffffff; stroke-width: 0.126579; stroke-linejoin: miter"/>
   </g>
   <g id="patch_18">
    <path d="M 70.718331 213.89811 
L 71.684346 213.89811 
L 71.684346 210.689751 
L 70.718331 210.689751 
z
" clip-path="url(#p15652a7879)" style="fill: #4c72b0; fill-opacity: 0.75; stroke: #ffffff; stroke-width: 0.126579; stroke-linejoin: miter"/>
   </g>
   <g id="patch_19">
    <path d="M 71.684346 213.89811 
L 72.650362 213.89811 
L 72.650362 209.887661 
L 71.684346 209.887661 
z
" clip-path="url(#p15652a7879)" style="fill: #4c72b0; fill-opacity: 0.75; stroke: #ffffff; stroke-width: 0.126579; stroke-linejoin: miter"/>
   </g>
   <g id="patch_20">
    <path d="M 72.650362 213.89811 
L 73.616378 213.89811 
L 73.616378 213.89811 
L 72.650362 213.89811 
z
" clip-path="url(#p15652a7879)" style="fill: #4c72b0; fill-opacity: 0.75; stroke: #ffffff; stroke-width: 0.126579; stroke-linejoin: miter"/>
   </g>
   <g id="patch_21">
    <path d="M 73.616378 213.89811 
L 74.582393 213.89811 
L 74.582393 211.491841 
L 73.616378 211.491841 
z
" clip-path="url(#p15652a7879)" style="fill: #4c72b0; fill-opacity: 0.75; stroke: #ffffff; stroke-width: 0.126579; stroke-linejoin: miter"/>
   </g>
   <g id="patch_22">
    <path d="M 74.582393 213.89811 
L 75.548409 213.89811 
L 75.548409 209.085571 
L 74.582393 209.085571 
z
" clip-path="url(#p15652a7879)" style="fill: #4c72b0; fill-opacity: 0.75; stroke: #ffffff; stroke-width: 0.126579; stroke-linejoin: miter"/>
   </g>
   <g id="patch_23">
    <path d="M 75.548409 213.89811 
L 76.514425 213.89811 
L 76.514425 209.887661 
L 75.548409 209.887661 
z
" clip-path="url(#p15652a7879)" style="fill: #4c72b0; fill-opacity: 0.75; stroke: #ffffff; stroke-width: 0.126579; stroke-linejoin: miter"/>
   </g>
   <g id="patch_24">
    <path d="M 76.514425 213.89811 
L 77.48044 213.89811 
L 77.48044 204.273032 
L 76.514425 204.273032 
z
" clip-path="url(#p15652a7879)" style="fill: #4c72b0; fill-opacity: 0.75; stroke: #ffffff; stroke-width: 0.126579; stroke-linejoin: miter"/>
   </g>
   <g id="patch_25">
    <path d="M 77.48044 213.89811 
L 78.446456 213.89811 
L 78.446456 207.481392 
L 77.48044 207.481392 
z
" clip-path="url(#p15652a7879)" style="fill: #4c72b0; fill-opacity: 0.75; stroke: #ffffff; stroke-width: 0.126579; stroke-linejoin: miter"/>
   </g>
   <g id="patch_26">
    <path d="M 78.446456 213.89811 
L 79.412471 213.89811 
L 79.412471 201.064673 
L 78.446456 201.064673 
z
" clip-path="url(#p15652a7879)" style="fill: #4c72b0; fill-opacity: 0.75; stroke: #ffffff; stroke-width: 0.126579; stroke-linejoin: miter"/>
   </g>
   <g id="patch_27">
    <path d="M 79.412471 213.89811 
L 80.378487 213.89811 
L 80.378487 199.460493 
L 79.412471 199.460493 
z
" clip-path="url(#p15652a7879)" style="fill: #4c72b0; fill-opacity: 0.75; stroke: #ffffff; stroke-width: 0.126579; stroke-linejoin: miter"/>
   </g>
   <g id="patch_28">
    <path d="M 80.378487 213.89811 
L 81.344503 213.89811 
L 81.344503 202.668853 
L 80.378487 202.668853 
z
" clip-path="url(#p15652a7879)" style="fill: #4c72b0; fill-opacity: 0.75; stroke: #ffffff; stroke-width: 0.126579; stroke-linejoin: miter"/>
   </g>
   <g id="patch_29">
    <path d="M 81.344503 213.89811 
L 82.310518 213.89811 
L 82.310518 200.262583 
L 81.344503 200.262583 
z
" clip-path="url(#p15652a7879)" style="fill: #4c72b0; fill-opacity: 0.75; stroke: #ffffff; stroke-width: 0.126579; stroke-linejoin: miter"/>
   </g>
   <g id="patch_30">
    <path d="M 82.310518 213.89811 
L 83.276534 213.89811 
L 83.276534 201.064673 
L 82.310518 201.064673 
z
" clip-path="url(#p15652a7879)" style="fill: #4c72b0; fill-opacity: 0.75; stroke: #ffffff; stroke-width: 0.126579; stroke-linejoin: miter"/>
   </g>
   <g id="patch_31">
    <path d="M 83.276534 213.89811 
L 84.24255 213.89811 
L 84.24255 197.856314 
L 83.276534 197.856314 
z
" clip-path="url(#p15652a7879)" style="fill: #4c72b0; fill-opacity: 0.75; stroke: #ffffff; stroke-width: 0.126579; stroke-linejoin: miter"/>
   </g>
   <g id="patch_32">
    <path d="M 84.24255 213.89811 
L 85.208565 213.89811 
L 85.208565 193.043775 
L 84.24255 193.043775 
z
" clip-path="url(#p15652a7879)" style="fill: #4c72b0; fill-opacity: 0.75; stroke: #ffffff; stroke-width: 0.126579; stroke-linejoin: miter"/>
   </g>
   <g id="patch_33">
    <path d="M 85.208565 213.89811 
L 86.174581 213.89811 
L 86.174581 196.252134 
L 85.208565 196.252134 
z
" clip-path="url(#p15652a7879)" style="fill: #4c72b0; fill-opacity: 0.75; stroke: #ffffff; stroke-width: 0.126579; stroke-linejoin: miter"/>
   </g>
   <g id="patch_34">
    <path d="M 86.174581 213.89811 
L 87.140597 213.89811 
L 87.140597 185.022876 
L 86.174581 185.022876 
z
" clip-path="url(#p15652a7879)" style="fill: #4c72b0; fill-opacity: 0.75; stroke: #ffffff; stroke-width: 0.126579; stroke-linejoin: miter"/>
   </g>
   <g id="patch_35">
    <path d="M 87.140597 213.89811 
L 88.106612 213.89811 
L 88.106612 191.439595 
L 87.140597 191.439595 
z
" clip-path="url(#p15652a7879)" style="fill: #4c72b0; fill-opacity: 0.75; stroke: #ffffff; stroke-width: 0.126579; stroke-linejoin: miter"/>
   </g>
   <g id="patch_36">
    <path d="M 88.106612 213.89811 
L 89.072628 213.89811 
L 89.072628 181.012427 
L 88.106612 181.012427 
z
" clip-path="url(#p15652a7879)" style="fill: #4c72b0; fill-opacity: 0.75; stroke: #ffffff; stroke-width: 0.126579; stroke-linejoin: miter"/>
   </g>
   <g id="patch_37">
    <path d="M 89.072628 213.89811 
L 90.038644 213.89811 
L 90.038644 189.033326 
L 89.072628 189.033326 
z
" clip-path="url(#p15652a7879)" style="fill: #4c72b0; fill-opacity: 0.75; stroke: #ffffff; stroke-width: 0.126579; stroke-linejoin: miter"/>
   </g>
   <g id="patch_38">
    <path d="M 90.038644 213.89811 
L 91.004659 213.89811 
L 91.004659 180.210338 
L 90.038644 180.210338 
z
" clip-path="url(#p15652a7879)" style="fill: #4c72b0; fill-opacity: 0.75; stroke: #ffffff; stroke-width: 0.126579; stroke-linejoin: miter"/>
   </g>
   <g id="patch_39">
    <path d="M 91.004659 213.89811 
L 91.970675 213.89811 
L 91.970675 177.804068 
L 91.004659 177.804068 
z
" clip-path="url(#p15652a7879)" style="fill: #4c72b0; fill-opacity: 0.75; stroke: #ffffff; stroke-width: 0.126579; stroke-linejoin: miter"/>
   </g>
   <g id="patch_40">
    <path d="M 91.970675 213.89811 
L 92.936691 213.89811 
L 92.936691 172.991529 
L 91.970675 172.991529 
z
" clip-path="url(#p15652a7879)" style="fill: #4c72b0; fill-opacity: 0.75; stroke: #ffffff; stroke-width: 0.126579; stroke-linejoin: miter"/>
   </g>
   <g id="patch_41">
    <path d="M 92.936691 213.89811 
L 93.902706 213.89811 
L 93.902706 174.595709 
L 92.936691 174.595709 
z
" clip-path="url(#p15652a7879)" style="fill: #4c72b0; fill-opacity: 0.75; stroke: #ffffff; stroke-width: 0.126579; stroke-linejoin: miter"/>
   </g>
   <g id="patch_42">
    <path d="M 93.902706 213.89811 
L 94.868722 213.89811 
L 94.868722 168.17899 
L 93.902706 168.17899 
z
" clip-path="url(#p15652a7879)" style="fill: #4c72b0; fill-opacity: 0.75; stroke: #ffffff; stroke-width: 0.126579; stroke-linejoin: miter"/>
   </g>
   <g id="patch_43">
    <path d="M 94.868722 213.89811 
L 95.834737 213.89811 
L 95.834737 166.57481 
L 94.868722 166.57481 
z
" clip-path="url(#p15652a7879)" style="fill: #4c72b0; fill-opacity: 0.75; stroke: #ffffff; stroke-width: 0.126579; stroke-linejoin: miter"/>
   </g>
   <g id="patch_44">
    <path d="M 95.834737 213.89811 
L 96.800753 213.89811 
L 96.800753 151.335104 
L 95.834737 151.335104 
z
" clip-path="url(#p15652a7879)" style="fill: #4c72b0; fill-opacity: 0.75; stroke: #ffffff; stroke-width: 0.126579; stroke-linejoin: miter"/>
   </g>
   <g id="patch_45">
    <path d="M 96.800753 213.89811 
L 97.766769 213.89811 
L 97.766769 161.762271 
L 96.800753 161.762271 
z
" clip-path="url(#p15652a7879)" style="fill: #4c72b0; fill-opacity: 0.75; stroke: #ffffff; stroke-width: 0.126579; stroke-linejoin: miter"/>
   </g>
   <g id="patch_46">
    <path d="M 97.766769 213.89811 
L 98.732784 213.89811 
L 98.732784 140.907936 
L 97.766769 140.907936 
z
" clip-path="url(#p15652a7879)" style="fill: #4c72b0; fill-opacity: 0.75; stroke: #ffffff; stroke-width: 0.126579; stroke-linejoin: miter"/>
   </g>
   <g id="patch_47">
    <path d="M 98.732784 213.89811 
L 99.6988 213.89811 
L 99.6988 153.741373 
L 98.732784 153.741373 
z
" clip-path="url(#p15652a7879)" style="fill: #4c72b0; fill-opacity: 0.75; stroke: #ffffff; stroke-width: 0.126579; stroke-linejoin: miter"/>
   </g>
   <g id="patch_48">
    <path d="M 99.6988 213.89811 
L 100.664816 213.89811 
L 100.664816 145.720475 
L 99.6988 145.720475 
z
" clip-path="url(#p15652a7879)" style="fill: #4c72b0; fill-opacity: 0.75; stroke: #ffffff; stroke-width: 0.126579; stroke-linejoin: miter"/>
   </g>
   <g id="patch_49">
    <path d="M 100.664816 213.89811 
L 101.630831 213.89811 
L 101.630831 147.324655 
L 100.664816 147.324655 
z
" clip-path="url(#p15652a7879)" style="fill: #4c72b0; fill-opacity: 0.75; stroke: #ffffff; stroke-width: 0.126579; stroke-linejoin: miter"/>
   </g>
   <g id="patch_50">
    <path d="M 101.630831 213.89811 
L 102.596847 213.89811 
L 102.596847 141.710026 
L 101.630831 141.710026 
z
" clip-path="url(#p15652a7879)" style="fill: #4c72b0; fill-opacity: 0.75; stroke: #ffffff; stroke-width: 0.126579; stroke-linejoin: miter"/>
   </g>
   <g id="patch_51">
    <path d="M 102.596847 213.89811 
L 103.562863 213.89811 
L 103.562863 107.220163 
L 102.596847 107.220163 
z
" clip-path="url(#p15652a7879)" style="fill: #4c72b0; fill-opacity: 0.75; stroke: #ffffff; stroke-width: 0.126579; stroke-linejoin: miter"/>
   </g>
   <g id="patch_52">
    <path d="M 103.562863 213.89811 
L 104.528878 213.89811 
L 104.528878 136.897487 
L 103.562863 136.897487 
z
" clip-path="url(#p15652a7879)" style="fill: #4c72b0; fill-opacity: 0.75; stroke: #ffffff; stroke-width: 0.126579; stroke-linejoin: miter"/>
   </g>
   <g id="patch_53">
    <path d="M 104.528878 213.89811 
L 105.494894 213.89811 
L 105.494894 128.876589 
L 104.528878 128.876589 
z
" clip-path="url(#p15652a7879)" style="fill: #4c72b0; fill-opacity: 0.75; stroke: #ffffff; stroke-width: 0.126579; stroke-linejoin: miter"/>
   </g>
   <g id="patch_54">
    <path d="M 105.494894 213.89811 
L 106.46091 213.89811 
L 106.46091 135.293307 
L 105.494894 135.293307 
z
" clip-path="url(#p15652a7879)" style="fill: #4c72b0; fill-opacity: 0.75; stroke: #ffffff; stroke-width: 0.126579; stroke-linejoin: miter"/>
   </g>
   <g id="patch_55">
    <path d="M 106.46091 213.89811 
L 107.426925 213.89811 
L 107.426925 128.074499 
L 106.46091 128.074499 
z
" clip-path="url(#p15652a7879)" style="fill: #4c72b0; fill-opacity: 0.75; stroke: #ffffff; stroke-width: 0.126579; stroke-linejoin: miter"/>
   </g>
   <g id="patch_56">
    <path d="M 107.426925 213.89811 
L 108.392941 213.89811 
L 108.392941 92.782546 
L 107.426925 92.782546 
z
" clip-path="url(#p15652a7879)" style="fill: #4c72b0; fill-opacity: 0.75; stroke: #ffffff; stroke-width: 0.126579; stroke-linejoin: miter"/>
   </g>
   <g id="patch_57">
    <path d="M 108.392941 213.89811 
L 109.358957 213.89811 
L 109.358957 99.199265 
L 108.392941 99.199265 
z
" clip-path="url(#p15652a7879)" style="fill: #4c72b0; fill-opacity: 0.75; stroke: #ffffff; stroke-width: 0.126579; stroke-linejoin: miter"/>
   </g>
   <g id="patch_58">
    <path d="M 109.358957 213.89811 
L 110.324972 213.89811 
L 110.324972 95.188816 
L 109.358957 95.188816 
z
" clip-path="url(#p15652a7879)" style="fill: #4c72b0; fill-opacity: 0.75; stroke: #ffffff; stroke-width: 0.126579; stroke-linejoin: miter"/>
   </g>
   <g id="patch_59">
    <path d="M 110.324972 213.89811 
L 111.290988 213.89811 
L 111.290988 95.188816 
L 110.324972 95.188816 
z
" clip-path="url(#p15652a7879)" style="fill: #4c72b0; fill-opacity: 0.75; stroke: #ffffff; stroke-width: 0.126579; stroke-linejoin: miter"/>
   </g>
   <g id="patch_60">
    <path d="M 111.290988 213.89811 
L 112.257004 213.89811 
L 112.257004 88.772097 
L 111.290988 88.772097 
z
" clip-path="url(#p15652a7879)" style="fill: #4c72b0; fill-opacity: 0.75; stroke: #ffffff; stroke-width: 0.126579; stroke-linejoin: miter"/>
   </g>
   <g id="patch_61">
    <path d="M 112.257004 213.89811 
L 113.223019 213.89811 
L 113.223019 86.365828 
L 112.257004 86.365828 
z
" clip-path="url(#p15652a7879)" style="fill: #4c72b0; fill-opacity: 0.75; stroke: #ffffff; stroke-width: 0.126579; stroke-linejoin: miter"/>
   </g>
   <g id="patch_62">
    <path d="M 113.223019 213.89811 
L 114.189035 213.89811 
L 114.189035 71.126121 
L 113.223019 71.126121 
z
" clip-path="url(#p15652a7879)" style="fill: #4c72b0; fill-opacity: 0.75; stroke: #ffffff; stroke-width: 0.126579; stroke-linejoin: miter"/>
   </g>
   <g id="patch_63">
    <path d="M 114.189035 213.89811 
L 115.15505 213.89811 
L 115.15505 95.188816 
L 114.189035 95.188816 
z
" clip-path="url(#p15652a7879)" style="fill: #4c72b0; fill-opacity: 0.75; stroke: #ffffff; stroke-width: 0.126579; stroke-linejoin: miter"/>
   </g>
   <g id="patch_64">
    <path d="M 115.15505 213.89811 
L 116.121066 213.89811 
L 116.121066 79.949109 
L 115.15505 79.949109 
z
" clip-path="url(#p15652a7879)" style="fill: #4c72b0; fill-opacity: 0.75; stroke: #ffffff; stroke-width: 0.126579; stroke-linejoin: miter"/>
   </g>
   <g id="patch_65">
    <path d="M 116.121066 213.89811 
L 117.087082 213.89811 
L 117.087082 55.084325 
L 116.121066 55.084325 
z
" clip-path="url(#p15652a7879)" style="fill: #4c72b0; fill-opacity: 0.75; stroke: #ffffff; stroke-width: 0.126579; stroke-linejoin: miter"/>
   </g>
   <g id="patch_66">
    <path d="M 117.087082 213.89811 
L 118.053097 213.89811 
L 118.053097 71.126121 
L 117.087082 71.126121 
z
" clip-path="url(#p15652a7879)" style="fill: #4c72b0; fill-opacity: 0.75; stroke: #ffffff; stroke-width: 0.126579; stroke-linejoin: miter"/>
   </g>
   <g id="patch_67">
    <path d="M 118.053097 213.89811 
L 119.019113 213.89811 
L 119.019113 71.126121 
L 118.053097 71.126121 
z
" clip-path="url(#p15652a7879)" style="fill: #4c72b0; fill-opacity: 0.75; stroke: #ffffff; stroke-width: 0.126579; stroke-linejoin: miter"/>
   </g>
   <g id="patch_68">
    <path d="M 119.019113 213.89811 
L 119.985129 213.89811 
L 119.985129 84.761648 
L 119.019113 84.761648 
z
" clip-path="url(#p15652a7879)" style="fill: #4c72b0; fill-opacity: 0.75; stroke: #ffffff; stroke-width: 0.126579; stroke-linejoin: miter"/>
   </g>
   <g id="patch_69">
    <path d="M 119.985129 213.89811 
L 120.951144 213.89811 
L 120.951144 48.667606 
L 119.985129 48.667606 
z
" clip-path="url(#p15652a7879)" style="fill: #4c72b0; fill-opacity: 0.75; stroke: #ffffff; stroke-width: 0.126579; stroke-linejoin: miter"/>
   </g>
   <g id="patch_70">
    <path d="M 120.951144 213.89811 
L 121.91716 213.89811 
L 121.91716 53.480145 
L 120.951144 53.480145 
z
" clip-path="url(#p15652a7879)" style="fill: #4c72b0; fill-opacity: 0.75; stroke: #ffffff; stroke-width: 0.126579; stroke-linejoin: miter"/>
   </g>
   <g id="patch_71">
    <path d="M 121.91716 213.89811 
L 122.883176 213.89811 
L 122.883176 31.82372 
L 121.91716 31.82372 
z
" clip-path="url(#p15652a7879)" style="fill: #4c72b0; fill-opacity: 0.75; stroke: #ffffff; stroke-width: 0.126579; stroke-linejoin: miter"/>
   </g>
   <g id="patch_72">
    <path d="M 122.883176 213.89811 
L 123.849191 213.89811 
L 123.849191 56.688504 
L 122.883176 56.688504 
z
" clip-path="url(#p15652a7879)" style="fill: #4c72b0; fill-opacity: 0.75; stroke: #ffffff; stroke-width: 0.126579; stroke-linejoin: miter"/>
   </g>
   <g id="patch_73">
    <path d="M 123.849191 213.89811 
L 124.815207 213.89811 
L 124.815207 70.324031 
L 123.849191 70.324031 
z
" clip-path="url(#p15652a7879)" style="fill: #4c72b0; fill-opacity: 0.75; stroke: #ffffff; stroke-width: 0.126579; stroke-linejoin: miter"/>
   </g>
   <g id="patch_74">
    <path d="M 124.815207 213.89811 
L 125.781223 213.89811 
L 125.781223 56.688504 
L 124.815207 56.688504 
z
" clip-path="url(#p15652a7879)" style="fill: #4c72b0; fill-opacity: 0.75; stroke: #ffffff; stroke-width: 0.126579; stroke-linejoin: miter"/>
   </g>
   <g id="patch_75">
    <path d="M 125.781223 213.89811 
L 126.747238 213.89811 
L 126.747238 62.303133 
L 125.781223 62.303133 
z
" clip-path="url(#p15652a7879)" style="fill: #4c72b0; fill-opacity: 0.75; stroke: #ffffff; stroke-width: 0.126579; stroke-linejoin: miter"/>
   </g>
   <g id="patch_76">
    <path d="M 126.747238 213.89811 
L 127.713254 213.89811 
L 127.713254 41.448797 
L 126.747238 41.448797 
z
" clip-path="url(#p15652a7879)" style="fill: #4c72b0; fill-opacity: 0.75; stroke: #ffffff; stroke-width: 0.126579; stroke-linejoin: miter"/>
   </g>
   <g id="patch_77">
    <path d="M 127.713254 213.89811 
L 128.67927 213.89811 
L 128.67927 79.147019 
L 127.713254 79.147019 
z
" clip-path="url(#p15652a7879)" style="fill: #4c72b0; fill-opacity: 0.75; stroke: #ffffff; stroke-width: 0.126579; stroke-linejoin: miter"/>
   </g>
   <g id="patch_78">
    <path d="M 128.67927 213.89811 
L 129.645285 213.89811 
L 129.645285 49.469696 
L 128.67927 49.469696 
z
" clip-path="url(#p15652a7879)" style="fill: #4c72b0; fill-opacity: 0.75; stroke: #ffffff; stroke-width: 0.126579; stroke-linejoin: miter"/>
   </g>
   <g id="patch_79">
    <path d="M 129.645285 213.89811 
L 130.611301 213.89811 
L 130.611301 68.719852 
L 129.645285 68.719852 
z
" clip-path="url(#p15652a7879)" style="fill: #4c72b0; fill-opacity: 0.75; stroke: #ffffff; stroke-width: 0.126579; stroke-linejoin: miter"/>
   </g>
   <g id="patch_80">
    <path d="M 130.611301 213.89811 
L 131.577316 213.89811 
L 131.577316 58.292684 
L 130.611301 58.292684 
z
" clip-path="url(#p15652a7879)" style="fill: #4c72b0; fill-opacity: 0.75; stroke: #ffffff; stroke-width: 0.126579; stroke-linejoin: miter"/>
   </g>
   <g id="patch_81">
    <path d="M 131.577316 213.89811 
L 132.543332 213.89811 
L 132.543332 75.13657 
L 131.577316 75.13657 
z
" clip-path="url(#p15652a7879)" style="fill: #4c72b0; fill-opacity: 0.75; stroke: #ffffff; stroke-width: 0.126579; stroke-linejoin: miter"/>
   </g>
   <g id="patch_82">
    <path d="M 132.543332 213.89811 
L 133.509348 213.89811 
L 133.509348 63.907313 
L 132.543332 63.907313 
z
" clip-path="url(#p15652a7879)" style="fill: #4c72b0; fill-opacity: 0.75; stroke: #ffffff; stroke-width: 0.126579; stroke-linejoin: miter"/>
   </g>
   <g id="patch_83">
    <path d="M 133.509348 213.89811 
L 134.475363 213.89811 
L 134.475363 69.521941 
L 133.509348 69.521941 
z
" clip-path="url(#p15652a7879)" style="fill: #4c72b0; fill-opacity: 0.75; stroke: #ffffff; stroke-width: 0.126579; stroke-linejoin: miter"/>
   </g>
   <g id="patch_84">
    <path d="M 134.475363 213.89811 
L 135.441379 213.89811 
L 135.441379 75.13657 
L 134.475363 75.13657 
z
" clip-path="url(#p15652a7879)" style="fill: #4c72b0; fill-opacity: 0.75; stroke: #ffffff; stroke-width: 0.126579; stroke-linejoin: miter"/>
   </g>
   <g id="patch_85">
    <path d="M 135.441379 213.89811 
L 136.407395 213.89811 
L 136.407395 81.553289 
L 135.441379 81.553289 
z
" clip-path="url(#p15652a7879)" style="fill: #4c72b0; fill-opacity: 0.75; stroke: #ffffff; stroke-width: 0.126579; stroke-linejoin: miter"/>
   </g>
   <g id="patch_86">
    <path d="M 136.407395 213.89811 
L 137.37341 213.89811 
L 137.37341 83.959558 
L 136.407395 83.959558 
z
" clip-path="url(#p15652a7879)" style="fill: #4c72b0; fill-opacity: 0.75; stroke: #ffffff; stroke-width: 0.126579; stroke-linejoin: miter"/>
   </g>
   <g id="patch_87">
    <path d="M 137.37341 213.89811 
L 138.339426 213.89811 
L 138.339426 84.761648 
L 137.37341 84.761648 
z
" clip-path="url(#p15652a7879)" style="fill: #4c72b0; fill-opacity: 0.75; stroke: #ffffff; stroke-width: 0.126579; stroke-linejoin: miter"/>
   </g>
   <g id="patch_88">
    <path d="M 138.339426 213.89811 
L 139.305442 213.89811 
L 139.305442 95.188816 
L 138.339426 95.188816 
z
" clip-path="url(#p15652a7879)" style="fill: #4c72b0; fill-opacity: 0.75; stroke: #ffffff; stroke-width: 0.126579; stroke-linejoin: miter"/>
   </g>
   <g id="patch_89">
    <path d="M 139.305442 213.89811 
L 140.271457 213.89811 
L 140.271457 94.386726 
L 139.305442 94.386726 
z
" clip-path="url(#p15652a7879)" style="fill: #4c72b0; fill-opacity: 0.75; stroke: #ffffff; stroke-width: 0.126579; stroke-linejoin: miter"/>
   </g>
   <g id="patch_90">
    <path d="M 140.271457 213.89811 
L 141.237473 213.89811 
L 141.237473 93.584636 
L 140.271457 93.584636 
z
" clip-path="url(#p15652a7879)" style="fill: #4c72b0; fill-opacity: 0.75; stroke: #ffffff; stroke-width: 0.126579; stroke-linejoin: miter"/>
   </g>
   <g id="patch_91">
    <path d="M 141.237473 213.89811 
L 142.203489 213.89811 
L 142.203489 87.970007 
L 141.237473 87.970007 
z
" clip-path="url(#p15652a7879)" style="fill: #4c72b0; fill-opacity: 0.75; stroke: #ffffff; stroke-width: 0.126579; stroke-linejoin: miter"/>
   </g>
   <g id="patch_92">
    <path d="M 142.203489 213.89811 
L 143.169504 213.89811 
L 143.169504 121.65778 
L 142.203489 121.65778 
z
" clip-path="url(#p15652a7879)" style="fill: #4c72b0; fill-opacity: 0.75; stroke: #ffffff; stroke-width: 0.126579; stroke-linejoin: miter"/>
   </g>
   <g id="patch_93">
    <path d="M 143.169504 213.89811 
L 144.13552 213.89811 
L 144.13552 107.220163 
L 143.169504 107.220163 
z
" clip-path="url(#p15652a7879)" style="fill: #4c72b0; fill-opacity: 0.75; stroke: #ffffff; stroke-width: 0.126579; stroke-linejoin: miter"/>
   </g>
   <g id="patch_94">
    <path d="M 144.13552 213.89811 
L 145.101536 213.89811 
L 145.101536 116.043151 
L 144.13552 116.043151 
z
" clip-path="url(#p15652a7879)" style="fill: #4c72b0; fill-opacity: 0.75; stroke: #ffffff; stroke-width: 0.126579; stroke-linejoin: miter"/>
   </g>
   <g id="patch_95">
    <path d="M 145.101536 213.89811 
L 146.067551 213.89811 
L 146.067551 114.438972 
L 145.101536 114.438972 
z
" clip-path="url(#p15652a7879)" style="fill: #4c72b0; fill-opacity: 0.75; stroke: #ffffff; stroke-width: 0.126579; stroke-linejoin: miter"/>
   </g>
   <g id="patch_96">
    <path d="M 146.067551 213.89811 
L 147.033567 213.89811 
L 147.033567 125.668229 
L 146.067551 125.668229 
z
" clip-path="url(#p15652a7879)" style="fill: #4c72b0; fill-opacity: 0.75; stroke: #ffffff; stroke-width: 0.126579; stroke-linejoin: miter"/>
   </g>
   <g id="patch_97">
    <path d="M 147.033567 213.89811 
L 147.999583 213.89811 
L 147.999583 126.470319 
L 147.033567 126.470319 
z
" clip-path="url(#p15652a7879)" style="fill: #4c72b0; fill-opacity: 0.75; stroke: #ffffff; stroke-width: 0.126579; stroke-linejoin: miter"/>
   </g>
   <g id="patch_98">
    <path d="M 147.999583 213.89811 
L 148.965598 213.89811 
L 148.965598 125.668229 
L 147.999583 125.668229 
z
" clip-path="url(#p15652a7879)" style="fill: #4c72b0; fill-opacity: 0.75; stroke: #ffffff; stroke-width: 0.126579; stroke-linejoin: miter"/>
   </g>
   <g id="patch_99">
    <path d="M 148.965598 213.89811 
L 149.931614 213.89811 
L 149.931614 151.335104 
L 148.965598 151.335104 
z
" clip-path="url(#p15652a7879)" style="fill: #4c72b0; fill-opacity: 0.75; stroke: #ffffff; stroke-width: 0.126579; stroke-linejoin: miter"/>
   </g>
   <g id="patch_100">
    <path d="M 149.931614 213.89811 
L 150.897629 213.89811 
L 150.897629 136.897487 
L 149.931614 136.897487 
z
" clip-path="url(#p15652a7879)" style="fill: #4c72b0; fill-opacity: 0.75; stroke: #ffffff; stroke-width: 0.126579; stroke-linejoin: miter"/>
   </g>
   <g id="patch_101">
    <path d="M 150.897629 213.89811 
L 151.863645 213.89811 
L 151.863645 156.949733 
L 150.897629 156.949733 
z
" clip-path="url(#p15652a7879)" style="fill: #4c72b0; fill-opacity: 0.75; stroke: #ffffff; stroke-width: 0.126579; stroke-linejoin: miter"/>
   </g>
   <g id="patch_102">
    <path d="M 151.863645 213.89811 
L 152.829661 213.89811 
L 152.829661 156.147643 
L 151.863645 156.147643 
z
" clip-path="url(#p15652a7879)" style="fill: #4c72b0; fill-opacity: 0.75; stroke: #ffffff; stroke-width: 0.126579; stroke-linejoin: miter"/>
   </g>
   <g id="patch_103">
    <path d="M 152.829661 213.89811 
L 153.795676 213.89811 
L 153.795676 152.939283 
L 152.829661 152.939283 
z
" clip-path="url(#p15652a7879)" style="fill: #4c72b0; fill-opacity: 0.75; stroke: #ffffff; stroke-width: 0.126579; stroke-linejoin: miter"/>
   </g>
   <g id="patch_104">
    <path d="M 153.795676 213.89811 
L 154.761692 213.89811 
L 154.761692 166.57481 
L 153.795676 166.57481 
z
" clip-path="url(#p15652a7879)" style="fill: #4c72b0; fill-opacity: 0.75; stroke: #ffffff; stroke-width: 0.126579; stroke-linejoin: miter"/>
   </g>
   <g id="patch_105">
    <path d="M 154.761692 213.89811 
L 155.727708 213.89811 
L 155.727708 160.960182 
L 154.761692 160.960182 
z
" clip-path="url(#p15652a7879)" style="fill: #4c72b0; fill-opacity: 0.75; stroke: #ffffff; stroke-width: 0.126579; stroke-linejoin: miter"/>
   </g>
   <g id="patch_106">
    <path d="M 155.727708 213.89811 
L 156.693723 213.89811 
L 156.693723 177.804068 
L 155.727708 177.804068 
z
" clip-path="url(#p15652a7879)" style="fill: #4c72b0; fill-opacity: 0.75; stroke: #ffffff; stroke-width: 0.126579; stroke-linejoin: miter"/>
   </g>
   <g id="patch_107">
    <path d="M 156.693723 213.89811 
L 157.659739 213.89811 
L 157.659739 164.168541 
L 156.693723 164.168541 
z
" clip-path="url(#p15652a7879)" style="fill: #4c72b0; fill-opacity: 0.75; stroke: #ffffff; stroke-width: 0.126579; stroke-linejoin: miter"/>
   </g>
   <g id="patch_108">
    <path d="M 157.659739 213.89811 
L 158.625755 213.89811 
L 158.625755 175.397799 
L 157.659739 175.397799 
z
" clip-path="url(#p15652a7879)" style="fill: #4c72b0; fill-opacity: 0.75; stroke: #ffffff; stroke-width: 0.126579; stroke-linejoin: miter"/>
   </g>
   <g id="patch_109">
    <path d="M 158.625755 213.89811 
L 159.59177 213.89811 
L 159.59177 177.804068 
L 158.625755 177.804068 
z
" clip-path="url(#p15652a7879)" style="fill: #4c72b0; fill-opacity: 0.75; stroke: #ffffff; stroke-width: 0.126579; stroke-linejoin: miter"/>
   </g>
   <g id="patch_110">
    <path d="M 159.59177 213.89811 
L 160.557786 213.89811 
L 160.557786 187.429146 
L 159.59177 187.429146 
z
" clip-path="url(#p15652a7879)" style="fill: #4c72b0; fill-opacity: 0.75; stroke: #ffffff; stroke-width: 0.126579; stroke-linejoin: miter"/>
   </g>
   <g id="patch_111">
    <path d="M 160.557786 213.89811 
L 161.523802 213.89811 
L 161.523802 186.627056 
L 160.557786 186.627056 
z
" clip-path="url(#p15652a7879)" style="fill: #4c72b0; fill-opacity: 0.75; stroke: #ffffff; stroke-width: 0.126579; stroke-linejoin: miter"/>
   </g>
   <g id="patch_112">
    <path d="M 161.523802 213.89811 
L 162.489817 213.89811 
L 162.489817 185.022876 
L 161.523802 185.022876 
z
" clip-path="url(#p15652a7879)" style="fill: #4c72b0; fill-opacity: 0.75; stroke: #ffffff; stroke-width: 0.126579; stroke-linejoin: miter"/>
   </g>
   <g id="patch_113">
    <path d="M 162.489817 213.89811 
L 163.455833 213.89811 
L 163.455833 181.012427 
L 162.489817 181.012427 
z
" clip-path="url(#p15652a7879)" style="fill: #4c72b0; fill-opacity: 0.75; stroke: #ffffff; stroke-width: 0.126579; stroke-linejoin: miter"/>
   </g>
   <g id="patch_114">
    <path d="M 163.455833 213.89811 
L 164.421849 213.89811 
L 164.421849 191.439595 
L 163.455833 191.439595 
z
" clip-path="url(#p15652a7879)" style="fill: #4c72b0; fill-opacity: 0.75; stroke: #ffffff; stroke-width: 0.126579; stroke-linejoin: miter"/>
   </g>
   <g id="patch_115">
    <path d="M 164.421849 213.89811 
L 165.387864 213.89811 
L 165.387864 189.835415 
L 164.421849 189.835415 
z
" clip-path="url(#p15652a7879)" style="fill: #4c72b0; fill-opacity: 0.75; stroke: #ffffff; stroke-width: 0.126579; stroke-linejoin: miter"/>
   </g>
   <g id="patch_116">
    <path d="M 165.387864 213.89811 
L 166.35388 213.89811 
L 166.35388 195.450044 
L 165.387864 195.450044 
z
" clip-path="url(#p15652a7879)" style="fill: #4c72b0; fill-opacity: 0.75; stroke: #ffffff; stroke-width: 0.126579; stroke-linejoin: miter"/>
   </g>
   <g id="patch_117">
    <path d="M 166.35388 213.89811 
L 167.319895 213.89811 
L 167.319895 195.450044 
L 166.35388 195.450044 
z
" clip-path="url(#p15652a7879)" style="fill: #4c72b0; fill-opacity: 0.75; stroke: #ffffff; stroke-width: 0.126579; stroke-linejoin: miter"/>
   </g>
   <g id="patch_118">
    <path d="M 167.319895 213.89811 
L 168.285911 213.89811 
L 168.285911 189.835415 
L 167.319895 189.835415 
z
" clip-path="url(#p15652a7879)" style="fill: #4c72b0; fill-opacity: 0.75; stroke: #ffffff; stroke-width: 0.126579; stroke-linejoin: miter"/>
   </g>
   <g id="patch_119">
    <path d="M 168.285911 213.89811 
L 169.251927 213.89811 
L 169.251927 201.064673 
L 168.285911 201.064673 
z
" clip-path="url(#p15652a7879)" style="fill: #4c72b0; fill-opacity: 0.75; stroke: #ffffff; stroke-width: 0.126579; stroke-linejoin: miter"/>
   </g>
   <g id="patch_120">
    <path d="M 169.251927 213.89811 
L 170.217942 213.89811 
L 170.217942 201.866763 
L 169.251927 201.866763 
z
" clip-path="url(#p15652a7879)" style="fill: #4c72b0; fill-opacity: 0.75; stroke: #ffffff; stroke-width: 0.126579; stroke-linejoin: miter"/>
   </g>
   <g id="patch_121">
    <path d="M 170.217942 213.89811 
L 171.183958 213.89811 
L 171.183958 205.075122 
L 170.217942 205.075122 
z
" clip-path="url(#p15652a7879)" style="fill: #4c72b0; fill-opacity: 0.75; stroke: #ffffff; stroke-width: 0.126579; stroke-linejoin: miter"/>
   </g>
   <g id="patch_122">
    <path d="M 171.183958 213.89811 
L 172.149974 213.89811 
L 172.149974 202.668853 
L 171.183958 202.668853 
z
" clip-path="url(#p15652a7879)" style="fill: #4c72b0; fill-opacity: 0.75; stroke: #ffffff; stroke-width: 0.126579; stroke-linejoin: miter"/>
   </g>
   <g id="patch_123">
    <path d="M 172.149974 213.89811 
L 173.115989 213.89811 
L 173.115989 207.481392 
L 172.149974 207.481392 
z
" clip-path="url(#p15652a7879)" style="fill: #4c72b0; fill-opacity: 0.75; stroke: #ffffff; stroke-width: 0.126579; stroke-linejoin: miter"/>
   </g>
   <g id="patch_124">
    <path d="M 173.115989 213.89811 
L 174.082005 213.89811 
L 174.082005 206.679302 
L 173.115989 206.679302 
z
" clip-path="url(#p15652a7879)" style="fill: #4c72b0; fill-opacity: 0.75; stroke: #ffffff; stroke-width: 0.126579; stroke-linejoin: miter"/>
   </g>
   <g id="patch_125">
    <path d="M 174.082005 213.89811 
L 175.048021 213.89811 
L 175.048021 205.877212 
L 174.082005 205.877212 
z
" clip-path="url(#p15652a7879)" style="fill: #4c72b0; fill-opacity: 0.75; stroke: #ffffff; stroke-width: 0.126579; stroke-linejoin: miter"/>
   </g>
   <g id="patch_126">
    <path d="M 175.048021 213.89811 
L 176.014036 213.89811 
L 176.014036 205.877212 
L 175.048021 205.877212 
z
" clip-path="url(#p15652a7879)" style="fill: #4c72b0; fill-opacity: 0.75; stroke: #ffffff; stroke-width: 0.126579; stroke-linejoin: miter"/>
   </g>
   <g id="patch_127">
    <path d="M 176.014036 213.89811 
L 176.980052 213.89811 
L 176.980052 210.689751 
L 176.014036 210.689751 
z
" clip-path="url(#p15652a7879)" style="fill: #4c72b0; fill-opacity: 0.75; stroke: #ffffff; stroke-width: 0.126579; stroke-linejoin: miter"/>
   </g>
   <g id="patch_128">
    <path d="M 176.980052 213.89811 
L 177.946068 213.89811 
L 177.946068 212.293931 
L 176.980052 212.293931 
z
" clip-path="url(#p15652a7879)" style="fill: #4c72b0; fill-opacity: 0.75; stroke: #ffffff; stroke-width: 0.126579; stroke-linejoin: miter"/>
   </g>
   <g id="patch_129">
    <path d="M 177.946068 213.89811 
L 178.912083 213.89811 
L 178.912083 207.481392 
L 177.946068 207.481392 
z
" clip-path="url(#p15652a7879)" style="fill: #4c72b0; fill-opacity: 0.75; stroke: #ffffff; stroke-width: 0.126579; stroke-linejoin: miter"/>
   </g>
   <g id="patch_130">
    <path d="M 178.912083 213.89811 
L 179.878099 213.89811 
L 179.878099 207.481392 
L 178.912083 207.481392 
z
" clip-path="url(#p15652a7879)" style="fill: #4c72b0; fill-opacity: 0.75; stroke: #ffffff; stroke-width: 0.126579; stroke-linejoin: miter"/>
   </g>
   <g id="patch_131">
    <path d="M 179.878099 213.89811 
L 180.844115 213.89811 
L 180.844115 211.491841 
L 179.878099 211.491841 
z
" clip-path="url(#p15652a7879)" style="fill: #4c72b0; fill-opacity: 0.75; stroke: #ffffff; stroke-width: 0.126579; stroke-linejoin: miter"/>
   </g>
   <g id="patch_132">
    <path d="M 180.844115 213.89811 
L 181.81013 213.89811 
L 181.81013 211.491841 
L 180.844115 211.491841 
z
" clip-path="url(#p15652a7879)" style="fill: #4c72b0; fill-opacity: 0.75; stroke: #ffffff; stroke-width: 0.126579; stroke-linejoin: miter"/>
   </g>
   <g id="patch_133">
    <path d="M 181.81013 213.89811 
L 182.776146 213.89811 
L 182.776146 211.491841 
L 181.81013 211.491841 
z
" clip-path="url(#p15652a7879)" style="fill: #4c72b0; fill-opacity: 0.75; stroke: #ffffff; stroke-width: 0.126579; stroke-linejoin: miter"/>
   </g>
   <g id="patch_134">
    <path d="M 182.776146 213.89811 
L 183.742161 213.89811 
L 183.742161 209.085571 
L 182.776146 209.085571 
z
" clip-path="url(#p15652a7879)" style="fill: #4c72b0; fill-opacity: 0.75; stroke: #ffffff; stroke-width: 0.126579; stroke-linejoin: miter"/>
   </g>
   <g id="patch_135">
    <path d="M 183.742161 213.89811 
L 184.708177 213.89811 
L 184.708177 211.491841 
L 183.742161 211.491841 
z
" clip-path="url(#p15652a7879)" style="fill: #4c72b0; fill-opacity: 0.75; stroke: #ffffff; stroke-width: 0.126579; stroke-linejoin: miter"/>
   </g>
   <g id="patch_136">
    <path d="M 184.708177 213.89811 
L 185.674193 213.89811 
L 185.674193 213.89811 
L 184.708177 213.89811 
z
" clip-path="url(#p15652a7879)" style="fill: #4c72b0; fill-opacity: 0.75; stroke: #ffffff; stroke-width: 0.126579; stroke-linejoin: miter"/>
   </g>
   <g id="patch_137">
    <path d="M 185.674193 213.89811 
L 186.640208 213.89811 
L 186.640208 213.09602 
L 185.674193 213.09602 
z
" clip-path="url(#p15652a7879)" style="fill: #4c72b0; fill-opacity: 0.75; stroke: #ffffff; stroke-width: 0.126579; stroke-linejoin: miter"/>
   </g>
   <g id="patch_138">
    <path d="M 186.640208 213.89811 
L 187.606224 213.89811 
L 187.606224 212.293931 
L 186.640208 212.293931 
z
" clip-path="url(#p15652a7879)" style="fill: #4c72b0; fill-opacity: 0.75; stroke: #ffffff; stroke-width: 0.126579; stroke-linejoin: miter"/>
   </g>
   <g id="patch_139">
    <path d="M 187.606224 213.89811 
L 188.57224 213.89811 
L 188.57224 212.293931 
L 187.606224 212.293931 
z
" clip-path="url(#p15652a7879)" style="fill: #4c72b0; fill-opacity: 0.75; stroke: #ffffff; stroke-width: 0.126579; stroke-linejoin: miter"/>
   </g>
   <g id="patch_140">
    <path d="M 188.57224 213.89811 
L 189.538255 213.89811 
L 189.538255 213.89811 
L 188.57224 213.89811 
z
" clip-path="url(#p15652a7879)" style="fill: #4c72b0; fill-opacity: 0.75; stroke: #ffffff; stroke-width: 0.126579; stroke-linejoin: miter"/>
   </g>
   <g id="patch_141">
    <path d="M 189.538255 213.89811 
L 190.504271 213.89811 
L 190.504271 213.09602 
L 189.538255 213.09602 
z
" clip-path="url(#p15652a7879)" style="fill: #4c72b0; fill-opacity: 0.75; stroke: #ffffff; stroke-width: 0.126579; stroke-linejoin: miter"/>
   </g>
   <g id="patch_142">
    <path d="M 190.504271 213.89811 
L 191.470287 213.89811 
L 191.470287 212.293931 
L 190.504271 212.293931 
z
" clip-path="url(#p15652a7879)" style="fill: #4c72b0; fill-opacity: 0.75; stroke: #ffffff; stroke-width: 0.126579; stroke-linejoin: miter"/>
   </g>
   <g id="patch_143">
    <path d="M 191.470287 213.89811 
L 192.436302 213.89811 
L 192.436302 213.09602 
L 191.470287 213.09602 
z
" clip-path="url(#p15652a7879)" style="fill: #4c72b0; fill-opacity: 0.75; stroke: #ffffff; stroke-width: 0.126579; stroke-linejoin: miter"/>
   </g>
   <g id="patch_144">
    <path d="M 192.436302 213.89811 
L 193.402318 213.89811 
L 193.402318 213.09602 
L 192.436302 213.09602 
z
" clip-path="url(#p15652a7879)" style="fill: #4c72b0; fill-opacity: 0.75; stroke: #ffffff; stroke-width: 0.126579; stroke-linejoin: miter"/>
   </g>
   <g id="line2d_10">
    <path d="M 236.390014 213.89811 
L 236.390014 22.72 
" clip-path="url(#p15652a7879)" style="fill: none; stroke-dasharray: 5.55,2.4; stroke-dashoffset: 0; stroke: #ff0000; stroke-width: 1.5"/>
   </g>
   <g id="patch_145">
    <path d="M 47.22 213.89811 
L 47.22 22.72 
" style="fill: none; stroke: #262626; stroke-width: 1.25; stroke-linejoin: miter; stroke-linecap: square"/>
   </g>
   <g id="patch_146">
    <path d="M 47.22 213.89811 
L 245.39811 213.89811 
" style="fill: none; stroke: #262626; stroke-width: 1.25; stroke-linejoin: miter; stroke-linecap: square"/>
   </g>
   <g id="text_12">
    <!-- a) eGene Enrichment in ASTADs (GM12878) -->
    <g style="fill: #262626" transform="translate(0 7.862063)scale(0.108 -0.108)">
     <defs>
      <path id="Arial-BoldMT-61" d="M 1116 2306 
L 319 2450 
Q 453 2931 781 3162 
Q 1109 3394 1756 3394 
Q 2344 3394 2631 3255 
Q 2919 3116 3036 2902 
Q 3153 2688 3153 2116 
L 3144 1091 
Q 3144 653 3186 445 
Q 3228 238 3344 0 
L 2475 0 
Q 2441 88 2391 259 
Q 2369 338 2359 363 
Q 2134 144 1878 34 
Q 1622 -75 1331 -75 
Q 819 -75 523 203 
Q 228 481 228 906 
Q 228 1188 362 1408 
Q 497 1628 739 1745 
Q 981 1863 1438 1950 
Q 2053 2066 2291 2166 
L 2291 2253 
Q 2291 2506 2166 2614 
Q 2041 2722 1694 2722 
Q 1459 2722 1328 2630 
Q 1197 2538 1116 2306 
z
M 2291 1594 
Q 2122 1538 1756 1459 
Q 1391 1381 1278 1306 
Q 1106 1184 1106 997 
Q 1106 813 1243 678 
Q 1381 544 1594 544 
Q 1831 544 2047 700 
Q 2206 819 2256 991 
Q 2291 1103 2291 1419 
L 2291 1594 
z
" transform="scale(0.015625)"/>
      <path id="Arial-BoldMT-29" d="M 216 -1347 
Q 475 -791 581 -494 
Q 688 -197 778 190 
Q 869 578 912 926 
Q 956 1275 956 1641 
Q 956 2384 797 3048 
Q 638 3713 209 4659 
L 806 4659 
Q 1278 3988 1539 3234 
Q 1800 2481 1800 1706 
Q 1800 1053 1594 306 
Q 1359 -531 822 -1347 
L 216 -1347 
z
" transform="scale(0.015625)"/>
      <path id="Arial-BoldMT-20" transform="scale(0.015625)"/>
      <path id="Arial-BoldMT-65" d="M 2381 1056 
L 3256 909 
Q 3088 428 2723 176 
Q 2359 -75 1813 -75 
Q 947 -75 531 491 
Q 203 944 203 1634 
Q 203 2459 634 2926 
Q 1066 3394 1725 3394 
Q 2466 3394 2894 2905 
Q 3322 2416 3303 1406 
L 1103 1406 
Q 1113 1016 1316 798 
Q 1519 581 1822 581 
Q 2028 581 2168 693 
Q 2309 806 2381 1056 
z
M 2431 1944 
Q 2422 2325 2234 2523 
Q 2047 2722 1778 2722 
Q 1491 2722 1303 2513 
Q 1116 2303 1119 1944 
L 2431 1944 
z
" transform="scale(0.015625)"/>
      <path id="Arial-BoldMT-47" d="M 2597 1684 
L 2597 2456 
L 4591 2456 
L 4591 631 
Q 4300 350 3748 136 
Q 3197 -78 2631 -78 
Q 1913 -78 1378 223 
Q 844 525 575 1086 
Q 306 1647 306 2306 
Q 306 3022 606 3578 
Q 906 4134 1484 4431 
Q 1925 4659 2581 4659 
Q 3434 4659 3914 4301 
Q 4394 3944 4531 3313 
L 3613 3141 
Q 3516 3478 3248 3673 
Q 2981 3869 2581 3869 
Q 1975 3869 1617 3484 
Q 1259 3100 1259 2344 
Q 1259 1528 1621 1120 
Q 1984 713 2572 713 
Q 2863 713 3155 827 
Q 3447 941 3656 1103 
L 3656 1684 
L 2597 1684 
z
" transform="scale(0.015625)"/>
      <path id="Arial-BoldMT-6e" d="M 3478 0 
L 2600 0 
L 2600 1694 
Q 2600 2231 2544 2389 
Q 2488 2547 2361 2634 
Q 2234 2722 2056 2722 
Q 1828 2722 1647 2597 
Q 1466 2472 1398 2265 
Q 1331 2059 1331 1503 
L 1331 0 
L 453 0 
L 453 3319 
L 1269 3319 
L 1269 2831 
Q 1703 3394 2363 3394 
Q 2653 3394 2893 3289 
Q 3134 3184 3257 3021 
Q 3381 2859 3429 2653 
Q 3478 2447 3478 2063 
L 3478 0 
z
" transform="scale(0.015625)"/>
      <path id="Arial-BoldMT-45" d="M 466 0 
L 466 4581 
L 3863 4581 
L 3863 3806 
L 1391 3806 
L 1391 2791 
L 3691 2791 
L 3691 2019 
L 1391 2019 
L 1391 772 
L 3950 772 
L 3950 0 
L 466 0 
z
" transform="scale(0.015625)"/>
      <path id="Arial-BoldMT-72" d="M 1300 0 
L 422 0 
L 422 3319 
L 1238 3319 
L 1238 2847 
Q 1447 3181 1614 3287 
Q 1781 3394 1994 3394 
Q 2294 3394 2572 3228 
L 2300 2463 
Q 2078 2606 1888 2606 
Q 1703 2606 1575 2504 
Q 1447 2403 1373 2137 
Q 1300 1872 1300 1025 
L 1300 0 
z
" transform="scale(0.015625)"/>
      <path id="Arial-BoldMT-69" d="M 459 3769 
L 459 4581 
L 1338 4581 
L 1338 3769 
L 459 3769 
z
M 459 0 
L 459 3319 
L 1338 3319 
L 1338 0 
L 459 0 
z
" transform="scale(0.015625)"/>
      <path id="Arial-BoldMT-63" d="M 3353 2338 
L 2488 2181 
Q 2444 2441 2289 2572 
Q 2134 2703 1888 2703 
Q 1559 2703 1364 2476 
Q 1169 2250 1169 1719 
Q 1169 1128 1367 884 
Q 1566 641 1900 641 
Q 2150 641 2309 783 
Q 2469 925 2534 1272 
L 3397 1125 
Q 3263 531 2881 228 
Q 2500 -75 1859 -75 
Q 1131 -75 698 384 
Q 266 844 266 1656 
Q 266 2478 700 2936 
Q 1134 3394 1875 3394 
Q 2481 3394 2839 3133 
Q 3197 2872 3353 2338 
z
" transform="scale(0.015625)"/>
      <path id="Arial-BoldMT-68" d="M 1334 4581 
L 1334 2897 
Q 1759 3394 2350 3394 
Q 2653 3394 2897 3281 
Q 3141 3169 3264 2994 
Q 3388 2819 3433 2606 
Q 3478 2394 3478 1947 
L 3478 0 
L 2600 0 
L 2600 1753 
Q 2600 2275 2550 2415 
Q 2500 2556 2373 2639 
Q 2247 2722 2056 2722 
Q 1838 2722 1666 2615 
Q 1494 2509 1414 2295 
Q 1334 2081 1334 1663 
L 1334 0 
L 456 0 
L 456 4581 
L 1334 4581 
z
" transform="scale(0.015625)"/>
      <path id="Arial-BoldMT-6d" d="M 394 3319 
L 1203 3319 
L 1203 2866 
Q 1638 3394 2238 3394 
Q 2556 3394 2790 3262 
Q 3025 3131 3175 2866 
Q 3394 3131 3647 3262 
Q 3900 3394 4188 3394 
Q 4553 3394 4806 3245 
Q 5059 3097 5184 2809 
Q 5275 2597 5275 2122 
L 5275 0 
L 4397 0 
L 4397 1897 
Q 4397 2391 4306 2534 
Q 4184 2722 3931 2722 
Q 3747 2722 3584 2609 
Q 3422 2497 3350 2280 
Q 3278 2063 3278 1594 
L 3278 0 
L 2400 0 
L 2400 1819 
Q 2400 2303 2353 2443 
Q 2306 2584 2207 2653 
Q 2109 2722 1941 2722 
Q 1738 2722 1575 2612 
Q 1413 2503 1342 2297 
Q 1272 2091 1272 1613 
L 1272 0 
L 394 0 
L 394 3319 
z
" transform="scale(0.015625)"/>
      <path id="Arial-BoldMT-74" d="M 1981 3319 
L 1981 2619 
L 1381 2619 
L 1381 1281 
Q 1381 875 1398 808 
Q 1416 741 1477 697 
Q 1538 653 1625 653 
Q 1747 653 1978 738 
L 2053 56 
Q 1747 -75 1359 -75 
Q 1122 -75 931 4 
Q 741 84 652 211 
Q 563 338 528 553 
Q 500 706 500 1172 
L 500 2619 
L 97 2619 
L 97 3319 
L 500 3319 
L 500 3978 
L 1381 4491 
L 1381 3319 
L 1981 3319 
z
" transform="scale(0.015625)"/>
      <path id="Arial-BoldMT-41" d="M 4597 0 
L 3591 0 
L 3191 1041 
L 1359 1041 
L 981 0 
L 0 0 
L 1784 4581 
L 2763 4581 
L 4597 0 
z
M 2894 1813 
L 2263 3513 
L 1644 1813 
L 2894 1813 
z
" transform="scale(0.015625)"/>
      <path id="Arial-BoldMT-53" d="M 231 1491 
L 1131 1578 
Q 1213 1125 1461 912 
Q 1709 700 2131 700 
Q 2578 700 2804 889 
Q 3031 1078 3031 1331 
Q 3031 1494 2936 1608 
Q 2841 1722 2603 1806 
Q 2441 1863 1863 2006 
Q 1119 2191 819 2459 
Q 397 2838 397 3381 
Q 397 3731 595 4036 
Q 794 4341 1167 4500 
Q 1541 4659 2069 4659 
Q 2931 4659 3367 4281 
Q 3803 3903 3825 3272 
L 2900 3231 
Q 2841 3584 2645 3739 
Q 2450 3894 2059 3894 
Q 1656 3894 1428 3728 
Q 1281 3622 1281 3444 
Q 1281 3281 1419 3166 
Q 1594 3019 2269 2859 
Q 2944 2700 3267 2529 
Q 3591 2359 3773 2064 
Q 3956 1769 3956 1334 
Q 3956 941 3737 597 
Q 3519 253 3119 86 
Q 2719 -81 2122 -81 
Q 1253 -81 787 320 
Q 322 722 231 1491 
z
" transform="scale(0.015625)"/>
      <path id="Arial-BoldMT-54" d="M 1497 0 
L 1497 3806 
L 138 3806 
L 138 4581 
L 3778 4581 
L 3778 3806 
L 2422 3806 
L 2422 0 
L 1497 0 
z
" transform="scale(0.015625)"/>
      <path id="Arial-BoldMT-44" d="M 463 4581 
L 2153 4581 
Q 2725 4581 3025 4494 
Q 3428 4375 3715 4072 
Q 4003 3769 4153 3330 
Q 4303 2891 4303 2247 
Q 4303 1681 4163 1272 
Q 3991 772 3672 463 
Q 3431 228 3022 97 
Q 2716 0 2203 0 
L 463 0 
L 463 4581 
z
M 1388 3806 
L 1388 772 
L 2078 772 
Q 2466 772 2638 816 
Q 2863 872 3011 1006 
Q 3159 1141 3253 1448 
Q 3347 1756 3347 2288 
Q 3347 2819 3253 3103 
Q 3159 3388 2990 3547 
Q 2822 3706 2563 3763 
Q 2369 3806 1803 3806 
L 1388 3806 
z
" transform="scale(0.015625)"/>
      <path id="Arial-BoldMT-73" d="M 150 947 
L 1031 1081 
Q 1088 825 1259 692 
Q 1431 559 1741 559 
Q 2081 559 2253 684 
Q 2369 772 2369 919 
Q 2369 1019 2306 1084 
Q 2241 1147 2013 1200 
Q 950 1434 666 1628 
Q 272 1897 272 2375 
Q 272 2806 612 3100 
Q 953 3394 1669 3394 
Q 2350 3394 2681 3172 
Q 3013 2950 3138 2516 
L 2309 2363 
Q 2256 2556 2107 2659 
Q 1959 2763 1684 2763 
Q 1338 2763 1188 2666 
Q 1088 2597 1088 2488 
Q 1088 2394 1175 2328 
Q 1294 2241 1995 2081 
Q 2697 1922 2975 1691 
Q 3250 1456 3250 1038 
Q 3250 581 2869 253 
Q 2488 -75 1741 -75 
Q 1063 -75 667 200 
Q 272 475 150 947 
z
" transform="scale(0.015625)"/>
      <path id="Arial-BoldMT-28" d="M 1916 -1347 
L 1313 -1347 
Q 834 -625 584 153 
Q 334 931 334 1659 
Q 334 2563 644 3369 
Q 913 4069 1325 4659 
L 1925 4659 
Q 1497 3713 1336 3048 
Q 1175 2384 1175 1641 
Q 1175 1128 1270 590 
Q 1366 53 1531 -431 
Q 1641 -750 1916 -1347 
z
" transform="scale(0.015625)"/>
      <path id="Arial-BoldMT-4d" d="M 453 0 
L 453 4581 
L 1838 4581 
L 2669 1456 
L 3491 4581 
L 4878 4581 
L 4878 0 
L 4019 0 
L 4019 3606 
L 3109 0 
L 2219 0 
L 1313 3606 
L 1313 0 
L 453 0 
z
" transform="scale(0.015625)"/>
      <path id="Arial-BoldMT-31" d="M 2519 0 
L 1641 0 
L 1641 3309 
Q 1159 2859 506 2644 
L 506 3441 
Q 850 3553 1253 3867 
Q 1656 4181 1806 4600 
L 2519 4600 
L 2519 0 
z
" transform="scale(0.015625)"/>
      <path id="Arial-BoldMT-32" d="M 3238 816 
L 3238 0 
L 159 0 
Q 209 463 459 877 
Q 709 1291 1447 1975 
Q 2041 2528 2175 2725 
Q 2356 2997 2356 3263 
Q 2356 3556 2198 3714 
Q 2041 3872 1763 3872 
Q 1488 3872 1325 3706 
Q 1163 3541 1138 3156 
L 263 3244 
Q 341 3969 753 4284 
Q 1166 4600 1784 4600 
Q 2463 4600 2850 4234 
Q 3238 3869 3238 3325 
Q 3238 3016 3127 2736 
Q 3016 2456 2775 2150 
Q 2616 1947 2200 1565 
Q 1784 1184 1673 1059 
Q 1563 934 1494 816 
L 3238 816 
z
" transform="scale(0.015625)"/>
      <path id="Arial-BoldMT-38" d="M 1025 2472 
Q 684 2616 529 2867 
Q 375 3119 375 3419 
Q 375 3931 733 4265 
Q 1091 4600 1750 4600 
Q 2403 4600 2764 4265 
Q 3125 3931 3125 3419 
Q 3125 3100 2959 2851 
Q 2794 2603 2494 2472 
Q 2875 2319 3073 2025 
Q 3272 1731 3272 1347 
Q 3272 713 2867 316 
Q 2463 -81 1791 -81 
Q 1166 -81 750 247 
Q 259 634 259 1309 
Q 259 1681 443 1992 
Q 628 2303 1025 2472 
z
M 1206 3356 
Q 1206 3094 1354 2947 
Q 1503 2800 1750 2800 
Q 2000 2800 2150 2948 
Q 2300 3097 2300 3359 
Q 2300 3606 2151 3754 
Q 2003 3903 1759 3903 
Q 1506 3903 1356 3753 
Q 1206 3603 1206 3356 
z
M 1125 1394 
Q 1125 1031 1311 828 
Q 1497 625 1775 625 
Q 2047 625 2225 820 
Q 2403 1016 2403 1384 
Q 2403 1706 2222 1901 
Q 2041 2097 1763 2097 
Q 1441 2097 1283 1875 
Q 1125 1653 1125 1394 
z
" transform="scale(0.015625)"/>
      <path id="Arial-BoldMT-37" d="M 272 3703 
L 272 4519 
L 3275 4519 
L 3275 3881 
Q 2903 3516 2518 2831 
Q 2134 2147 1932 1376 
Q 1731 606 1734 0 
L 888 0 
Q 909 950 1279 1937 
Q 1650 2925 2269 3703 
L 272 3703 
z
" transform="scale(0.015625)"/>
     </defs>
     <use xlink:href="#Arial-BoldMT-61"/>
     <use xlink:href="#Arial-BoldMT-29" x="55.615234"/>
     <use xlink:href="#Arial-BoldMT-20" x="88.916016"/>
     <use xlink:href="#Arial-BoldMT-65" x="116.699219"/>
     <use xlink:href="#Arial-BoldMT-47" x="172.314453"/>
     <use xlink:href="#Arial-BoldMT-65" x="250.097656"/>
     <use xlink:href="#Arial-BoldMT-6e" x="305.712891"/>
     <use xlink:href="#Arial-BoldMT-65" x="366.796875"/>
     <use xlink:href="#Arial-BoldMT-20" x="422.412109"/>
     <use xlink:href="#Arial-BoldMT-45" x="450.195312"/>
     <use xlink:href="#Arial-BoldMT-6e" x="516.894531"/>
     <use xlink:href="#Arial-BoldMT-72" x="577.978516"/>
     <use xlink:href="#Arial-BoldMT-69" x="616.894531"/>
     <use xlink:href="#Arial-BoldMT-63" x="644.677734"/>
     <use xlink:href="#Arial-BoldMT-68" x="700.292969"/>
     <use xlink:href="#Arial-BoldMT-6d" x="761.376953"/>
     <use xlink:href="#Arial-BoldMT-65" x="850.292969"/>
     <use xlink:href="#Arial-BoldMT-6e" x="905.908203"/>
     <use xlink:href="#Arial-BoldMT-74" x="966.992188"/>
     <use xlink:href="#Arial-BoldMT-20" x="1000.292969"/>
     <use xlink:href="#Arial-BoldMT-69" x="1028.076172"/>
     <use xlink:href="#Arial-BoldMT-6e" x="1055.859375"/>
     <use xlink:href="#Arial-BoldMT-20" x="1116.943359"/>
     <use xlink:href="#Arial-BoldMT-41" x="1140.976562"/>
     <use xlink:href="#Arial-BoldMT-53" x="1213.193359"/>
     <use xlink:href="#Arial-BoldMT-54" x="1279.892578"/>
     <use xlink:href="#Arial-BoldMT-41" x="1333.601562"/>
     <use xlink:href="#Arial-BoldMT-44" x="1405.818359"/>
     <use xlink:href="#Arial-BoldMT-73" x="1478.035156"/>
     <use xlink:href="#Arial-BoldMT-20" x="1533.650391"/>
     <use xlink:href="#Arial-BoldMT-28" x="1561.433594"/>
     <use xlink:href="#Arial-BoldMT-47" x="1594.734375"/>
     <use xlink:href="#Arial-BoldMT-4d" x="1672.517578"/>
     <use xlink:href="#Arial-BoldMT-31" x="1755.818359"/>
     <use xlink:href="#Arial-BoldMT-32" x="1811.433594"/>
     <use xlink:href="#Arial-BoldMT-38" x="1867.048828"/>
     <use xlink:href="#Arial-BoldMT-37" x="1922.664062"/>
     <use xlink:href="#Arial-BoldMT-38" x="1978.279297"/>
     <use xlink:href="#Arial-BoldMT-29" x="2033.894531"/>
    </g>
   </g>
   <g id="text_13">
    <!-- z = 5.65, p &lt; .001 *** -->
    <g style="fill: #262626" transform="translate(47.22 16.72)scale(0.09 -0.09)">
     <defs>
      <path id="ArialMT-7a" d="M 125 0 
L 125 456 
L 2238 2881 
Q 1878 2863 1603 2863 
L 250 2863 
L 250 3319 
L 2963 3319 
L 2963 2947 
L 1166 841 
L 819 456 
Q 1197 484 1528 484 
L 3063 484 
L 3063 0 
L 125 0 
z
" transform="scale(0.015625)"/>
      <path id="ArialMT-3d" d="M 3381 2694 
L 356 2694 
L 356 3219 
L 3381 3219 
L 3381 2694 
z
M 3381 1303 
L 356 1303 
L 356 1828 
L 3381 1828 
L 3381 1303 
z
" transform="scale(0.015625)"/>
      <path id="ArialMT-2c" d="M 569 0 
L 569 641 
L 1209 641 
L 1209 0 
Q 1209 -353 1084 -570 
Q 959 -788 688 -906 
L 531 -666 
Q 709 -588 793 -436 
Q 878 -284 888 0 
L 569 0 
z
" transform="scale(0.015625)"/>
      <path id="ArialMT-3c" d="M 350 2003 
L 350 2528 
L 3384 3809 
L 3384 3250 
L 978 2263 
L 3384 1266 
L 3384 706 
L 350 2003 
z
" transform="scale(0.015625)"/>
      <path id="ArialMT-2a" d="M 200 3741 
L 344 4184 
Q 841 4009 1066 3881 
Q 1006 4447 1003 4659 
L 1456 4659 
Q 1447 4350 1384 3884 
Q 1706 4047 2122 4184 
L 2266 3741 
Q 1869 3609 1488 3566 
Q 1678 3400 2025 2975 
L 1650 2709 
Q 1469 2956 1222 3381 
Q 991 2941 816 2709 
L 447 2975 
Q 809 3422 966 3566 
Q 563 3644 200 3741 
z
" transform="scale(0.015625)"/>
     </defs>
     <use xlink:href="#ArialMT-7a"/>
     <use xlink:href="#ArialMT-20" x="50"/>
     <use xlink:href="#ArialMT-3d" x="77.783203"/>
     <use xlink:href="#ArialMT-20" x="136.181641"/>
     <use xlink:href="#ArialMT-35" x="163.964844"/>
     <use xlink:href="#ArialMT-2e" x="219.580078"/>
     <use xlink:href="#ArialMT-36" x="247.363281"/>
     <use xlink:href="#ArialMT-35" x="302.978516"/>
     <use xlink:href="#ArialMT-2c" x="358.59375"/>
     <use xlink:href="#ArialMT-20" x="386.376953"/>
     <use xlink:href="#ArialMT-70" x="414.160156"/>
     <use xlink:href="#ArialMT-20" x="469.775391"/>
     <use xlink:href="#ArialMT-3c" x="497.558594"/>
     <use xlink:href="#ArialMT-20" x="555.957031"/>
     <use xlink:href="#ArialMT-2e" x="583.740234"/>
     <use xlink:href="#ArialMT-30" x="611.523438"/>
     <use xlink:href="#ArialMT-30" x="667.138672"/>
     <use xlink:href="#ArialMT-31" x="722.753906"/>
     <use xlink:href="#ArialMT-20" x="778.369141"/>
     <use xlink:href="#ArialMT-2a" x="806.152344"/>
     <use xlink:href="#ArialMT-2a" x="845.068359"/>
     <use xlink:href="#ArialMT-2a" x="883.984375"/>
    </g>
   </g>
  </g>
 </g>
 <defs>
  <clipPath id="p15652a7879">
   <rect x="47.22" y="22.72" width="198.17811" height="191.17811"/>
  </clipPath>
 </defs>
</svg>
